<svg width="94" height="26" viewBox="0 0 94 26" fill="none" xmlns="http://www.w3.org/2000/svg">
<path fill-rule="evenodd" clip-rule="evenodd" d="M32.6072 7.5427C34.5386 7.5427 36.0251 8.01514 37.0667 8.96011C38.1192 9.90516 38.6455 11.2521 38.6455 13.0008C38.6455 14.7496 38.1192 16.0964 37.0667 17.0414C36.0251 17.9864 34.5386 18.4589 32.6072 18.4589H29.7591C29.2599 18.4589 28.8694 18.3176 28.5873 18.0352C28.3051 17.7528 28.1641 17.3618 28.1641 16.8622V9.13941C28.1641 8.63973 28.3051 8.24868 28.5873 7.96627C28.8694 7.68386 29.2599 7.5427 29.7591 7.5427H32.6072ZM32.7538 15.7217C33.6652 15.7217 34.365 15.4882 34.8533 15.0211C35.3415 14.5431 35.5856 13.8698 35.5856 13.0008C35.5856 12.1319 35.3415 11.4638 34.8533 10.9967C34.365 10.5188 33.6652 10.2799 32.7538 10.2799H31.1588V15.7217H32.7538ZM41.4865 7.44487C41.9531 7.44487 42.3166 7.58603 42.5769 7.86853C42.8482 8.15094 42.9838 8.54199 42.9838 9.04158V16.9599C42.9838 17.4595 42.8482 17.8506 42.5769 18.133C42.3165 18.4154 41.9531 18.5566 41.4865 18.5566C41.0199 18.5566 40.6511 18.4154 40.3798 18.133C40.1193 17.8506 39.9891 17.4595 39.9891 16.9599V9.04158C39.9891 8.54199 40.1193 8.15094 40.3798 7.86853C40.6511 7.58603 41.0199 7.44487 41.4865 7.44487ZM53.5642 7.44487C54.02 7.44487 54.378 7.58603 54.6384 7.86853C54.8989 8.14004 55.029 8.52019 55.029 9.00898V16.7318C55.029 17.2857 54.8717 17.7311 54.557 18.0678C54.2532 18.3938 53.8409 18.5566 53.32 18.5566C52.9946 18.5566 52.6799 18.4969 52.3761 18.3774C52.0722 18.2471 51.7956 18.0081 51.546 17.6605L47.6399 12.1534H47.6074V16.9924C47.6074 17.4812 47.4772 17.8668 47.2168 18.1492C46.9564 18.4208 46.5983 18.5566 46.1427 18.5566C45.687 18.5566 45.3288 18.4208 45.0685 18.1492C44.8081 17.8668 44.678 17.4813 44.678 16.9924V9.26967C44.678 8.71575 44.8298 8.27575 45.1336 7.95001C45.4483 7.61328 45.866 7.44487 46.3868 7.44487C47.0921 7.44487 47.6672 7.74354 48.112 8.34097L52.0669 13.848H52.0994V9.00898C52.0994 8.52019 52.2296 8.14004 52.49 7.86853C52.7505 7.58603 53.1084 7.44487 53.5641 7.44487H53.5642ZM56.3837 13.0008C56.3837 12.1644 56.5247 11.3986 56.8068 10.7035C57.0889 10.0083 57.4796 9.41637 57.9787 8.92758C58.4887 8.4279 59.0962 8.0423 59.8016 7.77079C60.5068 7.48838 61.288 7.34713 62.1451 7.34713C63.0023 7.34713 63.7836 7.48838 64.4892 7.77079C65.1942 8.0423 65.7961 8.4279 66.2956 8.92758C66.8054 9.41637 67.2011 10.0083 67.4838 10.7035C67.7658 11.3986 67.9068 12.1644 67.9068 13.0008C67.9068 13.8371 67.7658 14.6029 67.4838 15.2981C67.201 15.9932 66.8054 16.5906 66.2956 17.0903C65.7961 17.5899 65.1942 17.9756 64.4892 18.2471C63.7836 18.5186 63.0023 18.6544 62.1451 18.6544C61.288 18.6544 60.5067 18.5186 59.8016 18.2471C59.0962 17.9756 58.4887 17.5899 57.9787 17.0903C57.4796 16.5906 57.089 15.9932 56.8068 15.2981C56.5247 14.6029 56.3837 13.8371 56.3837 13.0008ZM59.4435 13.0008C59.4435 13.4353 59.5086 13.8317 59.6389 14.1902C59.7691 14.5486 59.9534 14.8582 60.1923 15.1189C60.4309 15.3687 60.7131 15.5642 61.0385 15.7054C61.3749 15.8466 61.7438 15.9172 62.1452 15.9172C62.5467 15.9172 62.9101 15.8466 63.2357 15.7054C63.5721 15.5642 63.8599 15.3687 64.0981 15.1189C64.3371 14.8582 64.5211 14.5486 64.6518 14.1902C64.7816 13.8317 64.847 13.4352 64.847 13.0008C64.847 12.5663 64.7816 12.1698 64.6518 11.8114C64.5211 11.453 64.3371 11.1489 64.0981 10.899C63.8599 10.6384 63.5721 10.4374 63.2357 10.2962C62.9101 10.155 62.5467 10.0845 62.1452 10.0845C61.7438 10.0845 61.3749 10.155 61.0385 10.2962C60.713 10.4374 60.4309 10.6384 60.1923 10.899C59.9535 11.1489 59.7691 11.4529 59.6389 11.8114C59.5086 12.1699 59.4435 12.5663 59.4435 13.0008ZM77.1566 7.5427C77.6123 7.5427 77.9656 7.6676 78.2149 7.91731C78.4754 8.1563 78.6053 8.48758 78.6053 8.91123C78.6053 9.33489 78.4754 9.67162 78.2149 9.92151C77.9656 10.1604 77.6123 10.2799 77.1566 10.2799H74.7319V16.96C74.7319 17.4596 74.5961 17.8507 74.3253 18.1331C74.0647 18.4155 73.7011 18.5567 73.2342 18.5567C72.7682 18.5567 72.3993 18.4155 72.1277 18.1331C71.8672 17.8507 71.7373 17.4596 71.7373 16.96V10.2799H69.3119C68.8562 10.2799 68.4985 10.1604 68.238 9.92151C67.9886 9.67162 67.864 9.33498 67.864 8.91123C67.864 8.48766 67.9886 8.15639 68.238 7.91731C68.4985 7.6676 68.8562 7.5427 69.3119 7.5427H77.1567H77.1566ZM80.9669 7.44487C81.4337 7.44487 81.7974 7.58603 82.0579 7.86853C82.3287 8.15094 82.4646 8.54199 82.4646 9.04158V16.9599C82.4646 17.4595 82.3287 17.8506 82.0579 18.133C81.7974 18.4154 81.4337 18.5566 80.9669 18.5566C80.5008 18.5566 80.1319 18.4154 79.8603 18.133C79.5998 17.8506 79.4699 17.4595 79.4699 16.9599V9.04158C79.4699 8.54199 79.5998 8.15094 79.8603 7.86853C80.1319 7.58603 80.5008 7.44487 80.9669 7.44487ZM86.8768 10.8989C86.8768 11.0184 86.9087 11.1215 86.974 11.2085C87.0393 11.2954 87.1477 11.3714 87.2998 11.4366C87.4624 11.4909 87.6739 11.5343 87.9344 11.5669C88.2052 11.5995 88.5363 11.6158 88.9274 11.6158C89.7519 11.6267 90.4518 11.7027 91.027 11.8439C91.6125 11.9742 92.0846 12.1807 92.4423 12.4631C92.8112 12.7346 93.0777 13.0768 93.2402 13.4895C93.4139 13.8914 93.5007 14.3694 93.5007 14.9233C93.5007 16.1399 93.0828 17.0686 92.2472 17.7093C91.4226 18.3394 90.2077 18.6544 88.6017 18.6544C86.6594 18.6544 85.1892 18.1873 84.191 17.2531C84.05 17.1337 83.9364 16.9816 83.8496 16.797C83.7731 16.6124 83.7353 16.4059 83.7353 16.1779C83.7353 15.7761 83.8548 15.4501 84.0938 15.2003C84.3431 14.9396 84.6631 14.8093 85.0534 14.8093C85.2924 14.8093 85.4935 14.8473 85.6561 14.9234C85.8186 14.9994 85.9708 15.0917 86.1118 15.2003C86.8065 15.7652 87.6904 16.0475 88.7644 16.0475C89.3722 16.0475 89.8167 15.9715 90.0995 15.8194C90.3816 15.6564 90.5226 15.4066 90.5226 15.0699C90.5226 14.9504 90.4899 14.8473 90.4247 14.7603C90.3594 14.6625 90.2458 14.5811 90.0832 14.516C89.931 14.4508 89.7195 14.4019 89.4479 14.3693C89.177 14.3367 88.8349 14.3204 88.423 14.3204C87.6088 14.3096 86.9149 14.239 86.3397 14.1086C85.7645 13.9674 85.2925 13.7664 84.9237 13.5057C84.566 13.2342 84.3055 12.8975 84.1422 12.4956C83.9796 12.0938 83.898 11.6212 83.898 11.0781C83.898 10.5024 84.0071 9.98655 84.2238 9.53037C84.4517 9.06329 84.7775 8.67225 85.2005 8.35723C85.6235 8.0314 86.1335 7.78152 86.7302 7.60775C87.338 7.43398 88.0164 7.34705 88.7644 7.34705C90.1865 7.34705 91.3799 7.66207 92.3454 8.2921C92.5621 8.43335 92.7306 8.61248 92.8501 8.82975C92.9689 9.03622 93.0289 9.28057 93.0289 9.56298C93.0289 9.96484 92.9043 10.2961 92.6541 10.5568C92.4159 10.8067 92.1012 10.9316 91.7109 10.9316C91.4934 10.9316 91.3034 10.8935 91.1409 10.8175C90.9887 10.7415 90.8425 10.66 90.7015 10.5731C90.0506 10.1603 89.3232 9.95403 88.5203 9.95403C88 9.95403 87.5926 10.041 87.3002 10.2147C87.0182 10.3777 86.8771 10.6058 86.8771 10.899L86.8768 10.8989Z" fill="#413F48"/>
<path fill-rule="evenodd" clip-rule="evenodd" d="M0.500488 13.0001C0.500488 19.6581 5.89211 25.0556 12.5431 25.0556C19.1941 25.0556 24.5857 19.6581 24.5857 13.0001C24.5857 6.34196 19.1941 0.944458 12.5431 0.944458H2.33629C1.32244 0.944458 0.500575 1.76721 0.500575 2.78223V13.0001H0.500488ZM4.6835 12.9991C4.6835 8.65365 8.20234 5.13102 12.5431 5.13102C16.8839 5.13102 20.4028 8.65365 20.4028 12.9991C20.4028 17.3445 16.8838 20.8672 12.5431 20.8672H5.88165C5.21989 20.8672 4.6835 20.3302 4.6835 19.6678V12.9992V12.9991Z" fill="url(#paint0_linear_21_4747)"/>
<path fill-rule="evenodd" clip-rule="evenodd" d="M0.500488 13.0001C0.500488 6.34196 5.89211 0.944458 12.5431 0.944458C19.1941 0.944458 24.5857 6.34188 24.5857 13.0001C24.5857 19.6581 19.1941 25.0556 12.5431 25.0556H2.33629C1.32244 25.0556 0.500575 24.2328 0.500575 23.2178V13.0001H0.500488ZM4.6835 12.9991C4.6835 8.65365 8.20234 5.13102 12.5431 5.13102C16.8839 5.13102 20.4028 8.65365 20.4028 12.9991C20.4028 17.3445 16.8838 20.8672 12.5431 20.8672H5.88165C5.21989 20.8672 4.6835 20.3302 4.6835 19.6678V12.9992V12.9991Z" fill="url(#paint1_linear_21_4747)"/>
<path fill-rule="evenodd" clip-rule="evenodd" d="M9.28347 14.2422C9.95395 14.2422 10.4976 13.6979 10.4976 13.0267C10.4976 12.3554 9.95395 11.8113 9.28347 11.8113C8.6129 11.8113 8.06934 12.3554 8.06934 13.0267C8.06934 13.6979 8.6129 14.2422 9.28347 14.2422Z" fill="#413F48"/>
<path fill-rule="evenodd" clip-rule="evenodd" d="M15.6712 14.2422C16.3417 14.2422 16.8853 13.6979 16.8853 13.0267C16.8853 12.3554 16.3417 11.8113 15.6712 11.8113C15.0006 11.8113 14.457 12.3554 14.457 13.0267C14.457 13.6979 15.0006 14.2422 15.6712 14.2422Z" fill="#413F48"/>
<defs>
<linearGradient id="paint0_linear_21_4747" x1="1.59711" y1="2.24561" x2="11.5581" y2="11.668" gradientUnits="userSpaceOnUse">
<stop stop-color="#F95870"/>
<stop offset="0.0588235" stop-color="#F95870"/>
<stop offset="1" stop-color="#6600AA"/>
</linearGradient>
<linearGradient id="paint1_linear_21_4747" x1="21.1739" y1="2.24561" x2="-0.540483" y2="26.1302" gradientUnits="userSpaceOnUse">
<stop stop-color="#60BCF3"/>
<stop offset="0.0509804" stop-color="#60BCF3"/>
<stop offset="0.168627" stop-color="#D3E2F5"/>
<stop offset="0.278431" stop-color="#FFD27F"/>
<stop offset="0.419608" stop-color="#FF847E"/>
<stop offset="0.631373" stop-color="#F72C68"/>
<stop offset="0.8" stop-color="#A53988"/>
<stop offset="0.980392" stop-color="#475C93"/>
<stop offset="1" stop-color="#475C93"/>
</linearGradient>
</defs>
</svg>
