<svg width="229" height="175" viewBox="0 0 229 175" fill="none" xmlns="http://www.w3.org/2000/svg">
<g clip-path="url(#clip0_78_5985)">
<path d="M1.05875 110.138C0.47159 100.391 7.87478 92.0483 17.6155 91.3759L206.864 78.3121C217.361 77.5874 226.23 86.0095 226.152 96.5317C226.069 107.834 226.065 121.764 226.391 131.853C226.618 138.86 227.101 147.51 227.586 155.183C228.244 165.608 220.006 174.497 209.56 174.497H20.6021C9.74276 174.497 1.47432 164.916 2.06353 154.073C2.87002 139.231 2.05717 126.71 1.05875 110.138Z" fill="#FFBDFC"/>
<path d="M44.0842 116.667H186.187C186.967 116.682 187.74 116.531 188.456 116.224C189.173 115.917 189.815 115.461 190.342 114.887C190.868 114.313 191.267 113.633 191.51 112.892C191.754 112.152 191.837 111.369 191.754 110.594L184.077 22.5383C183.905 20.8996 183.143 19.3795 181.932 18.2619C180.722 17.1443 179.145 16.5058 177.498 16.4655H35.395C34.6162 16.4512 33.8431 16.6026 33.1272 16.9096C32.4113 17.2167 31.7688 17.6725 31.2424 18.2468C30.716 18.821 30.3177 19.5006 30.0739 20.2405C29.8301 20.9804 29.7464 21.7636 29.8283 22.5383L37.4598 110.594C37.6325 112.24 38.4014 113.766 39.6216 114.885C40.8418 116.004 42.4291 116.637 44.0842 116.667Z" fill="#E2C4FF"/>
<path d="M47.0464 114.819H185.607C186.271 114.829 186.928 114.697 187.537 114.433C188.146 114.169 188.691 113.779 189.137 113.288C189.584 112.797 189.92 112.216 190.125 111.585C190.329 110.954 190.397 110.286 190.324 109.627L183.33 29.4104C183.288 29.0084 183.101 28.6354 182.804 28.3615C182.507 28.0876 182.12 27.9315 181.715 27.9226H35.7814C35.5909 27.9193 35.402 27.9566 35.2271 28.032C35.0522 28.1074 34.8953 28.2192 34.767 28.36C34.6387 28.5008 34.5418 28.6672 34.4829 28.8484C34.4239 29.0295 34.4042 29.2211 34.4251 29.4104L41.424 109.627C41.5658 111.029 42.2158 112.332 43.2514 113.288C44.2871 114.245 45.6369 114.789 47.0464 114.819Z" fill="white"/>
<path d="M167.94 23.9299C168.896 23.9462 169.844 23.759 170.722 23.3807C171.6 23.0024 172.388 22.4417 173.032 21.7357C173.677 21.0297 174.164 20.1947 174.462 19.2861C174.759 18.3774 174.859 17.416 174.757 16.4655C174.549 14.4482 173.611 12.5763 172.12 11.2018C170.629 9.8272 168.687 9.04457 166.66 9.00099C165.704 8.98459 164.756 9.17179 163.878 9.55014C163 9.92849 162.213 10.4893 161.569 11.1954C160.924 11.9014 160.438 12.7366 160.141 13.6452C159.844 14.5538 159.744 15.5152 159.848 16.4655H162.884C162.823 15.9012 162.883 15.3303 163.059 14.7909C163.236 14.2515 163.525 13.7558 163.908 13.3369C164.291 12.918 164.759 12.5855 165.281 12.3614C165.802 12.1374 166.365 12.0269 166.933 12.0374C168.138 12.0595 169.294 12.5221 170.181 13.3379C171.069 14.1537 171.627 15.2662 171.751 16.4655C171.812 17.0297 171.752 17.6006 171.575 18.14C171.399 18.6794 171.109 19.1751 170.727 19.594C170.344 20.0129 169.876 20.3454 169.354 20.5695C168.833 20.7936 168.27 20.904 167.702 20.8935L167.94 23.9299Z" fill="#7520C7"/>
<path d="M137.911 23.9299C138.869 23.9491 139.819 23.7641 140.7 23.3871C141.58 23.01 142.37 22.4497 143.017 21.7434C143.664 21.0371 144.153 20.2011 144.451 19.291C144.75 18.3809 144.851 17.4177 144.748 16.4655C144.54 14.4482 143.602 12.5763 142.111 11.2018C140.62 9.8272 138.678 9.04457 136.651 9.00099C135.695 8.98459 134.747 9.17179 133.869 9.55014C132.991 9.92849 132.204 10.4893 131.56 11.1954C130.916 11.9014 130.429 12.7366 130.132 13.6452C129.836 14.5539 129.736 15.5152 129.839 16.4655H132.876C132.815 15.9012 132.874 15.3303 133.051 14.7909C133.227 14.2515 133.517 13.7558 133.9 13.3369C134.283 12.9181 134.751 12.5855 135.272 12.3614C135.794 12.1374 136.357 12.0269 136.924 12.0374C138.13 12.0595 139.285 12.5221 140.173 13.3379C141.06 14.1537 141.619 15.2662 141.742 16.4655C141.802 17.0296 141.742 17.6001 141.565 18.1391C141.388 18.6782 141.099 19.1735 140.716 19.5922C140.333 20.0109 139.866 20.3435 139.345 20.5678C138.824 20.7922 138.261 20.9032 137.693 20.8935L137.911 23.9299Z" fill="#7520C7"/>
<path d="M107.87 23.9299C108.825 23.9455 109.773 23.7578 110.651 23.3791C111.528 23.0005 112.315 22.4396 112.959 21.7338C113.603 21.0279 114.09 20.1931 114.387 19.2849C114.684 18.3766 114.784 17.4155 114.682 16.4655C114.476 14.4473 113.539 12.5743 112.047 11.1993C110.556 9.82429 108.613 9.0424 106.585 9.00099C105.629 8.98459 104.681 9.17179 103.803 9.55014C102.925 9.92849 102.138 10.4893 101.494 11.1954C100.849 11.9014 100.363 12.7366 100.066 13.6452C99.7693 14.5539 99.6694 15.5152 99.773 16.4655H102.809C102.747 15.901 102.806 15.3298 102.983 14.79C103.159 14.2503 103.448 13.7543 103.831 13.3352C104.215 12.9161 104.683 12.5836 105.205 12.3598C105.727 12.136 106.29 12.0261 106.858 12.0374C108.063 12.0596 109.218 12.5224 110.104 13.3383C110.991 14.1542 111.548 15.2667 111.671 16.4655C111.732 17.0297 111.672 17.6006 111.495 18.14C111.319 18.6794 111.029 19.1751 110.646 19.594C110.264 20.0129 109.796 20.3454 109.274 20.5695C108.753 20.7936 108.19 20.904 107.622 20.8935L107.87 23.9299Z" fill="#7520C7"/>
<path d="M77.8419 23.9299C78.7974 23.9455 79.7453 23.7577 80.6227 23.3791C81.5001 23.0005 82.2869 22.4396 82.9311 21.7338C83.5752 21.0279 84.0619 20.1931 84.3589 19.2848C84.6558 18.3766 84.7563 17.4155 84.6536 16.4654C84.4466 14.4478 83.5093 12.5753 82.018 11.2005C80.5267 9.82574 78.5844 9.04348 76.5565 9.00098C75.6006 8.98467 74.6522 9.17189 73.7742 9.55019C72.8962 9.9285 72.1087 10.4892 71.464 11.1952C70.8193 11.9012 70.3322 12.7362 70.0349 13.6448C69.7376 14.5535 69.637 15.515 69.7398 16.4654H72.7762C72.715 15.9012 72.7747 15.3303 72.9513 14.7909C73.1279 14.2515 73.4173 13.7558 73.8003 13.3369C74.1833 12.918 74.6511 12.5855 75.1726 12.3614C75.694 12.1373 76.2572 12.0269 76.8247 12.0374C78.0295 12.0596 79.1845 12.5224 80.0712 13.3383C80.958 14.1542 81.5152 15.2667 81.6374 16.4654C81.6986 17.0297 81.6389 17.6006 81.4623 18.14C81.2858 18.6794 80.9964 19.1751 80.6134 19.594C80.2304 20.0129 79.7626 20.3454 79.2411 20.5695C78.7196 20.7935 78.1564 20.904 77.5889 20.8935L77.8419 23.9299Z" fill="#7520C7"/>
<path d="M47.8024 23.9299C48.7579 23.9455 49.7057 23.7577 50.5831 23.3791C51.4605 23.0005 52.2474 22.4396 52.8915 21.7338C53.5356 21.0279 54.0223 20.1931 54.3193 19.2848C54.6163 18.3766 54.7167 17.4155 54.614 16.4654C54.4071 14.4478 53.4697 12.5753 51.9785 11.2005C50.4872 9.82574 48.5448 9.04348 46.517 9.00098C45.5611 8.98467 44.6126 9.17189 43.7346 9.55019C42.8566 9.9285 42.0691 10.4892 41.4245 11.1952C40.7798 11.9012 40.2926 12.7362 39.9954 13.6448C39.6981 14.5535 39.5975 15.515 39.7003 16.4654H42.7367C42.6755 15.9012 42.7352 15.3303 42.9117 14.7909C43.0883 14.2515 43.3777 13.7558 43.7607 13.3369C44.1437 12.918 44.6115 12.5855 45.133 12.3614C45.6545 12.1373 46.2177 12.0269 46.7852 12.0374C47.9897 12.0607 49.144 12.5239 50.0305 13.3396C50.9171 14.1552 51.4745 15.2671 51.5979 16.4654C51.659 17.0297 51.5994 17.6006 51.4228 18.14C51.2462 18.6794 50.9568 19.1751 50.5738 19.594C50.1908 20.0129 49.723 20.3454 49.2015 20.5695C48.6801 20.7935 48.1168 20.904 47.5493 20.8935L47.8024 23.9299Z" fill="#7520C7"/>
<path d="M47.4067 111.181H184.383C184.416 111.183 184.448 111.176 184.478 111.164C184.508 111.151 184.534 111.132 184.556 111.108C184.578 111.084 184.594 111.055 184.603 111.024C184.613 110.993 184.616 110.961 184.611 110.928L177.784 32.6604C177.778 32.5919 177.747 32.5281 177.696 32.4814C177.646 32.4347 177.58 32.4083 177.511 32.4073H40.5394C40.5068 32.4064 40.4744 32.4125 40.4444 32.4251C40.4143 32.4378 40.3874 32.4568 40.3653 32.4808C40.3432 32.5048 40.3266 32.5332 40.3164 32.5642C40.3063 32.5952 40.3029 32.628 40.3066 32.6604L47.1334 110.928C47.1396 110.997 47.171 111.061 47.2215 111.107C47.2719 111.154 47.3379 111.181 47.4067 111.181ZM184.085 110.675H47.6192L40.8329 32.9134H177.299L184.085 110.675Z" fill="#E0E0E0"/>
<path d="M46.0643 95.5279H183.021C183.053 95.5281 183.085 95.5215 183.114 95.5085C183.144 95.4955 183.17 95.4764 183.192 95.4525C183.213 95.4286 183.229 95.4004 183.239 95.3698C183.249 95.3392 183.252 95.3068 183.249 95.2749C183.243 95.2059 183.212 95.1415 183.162 95.0946C183.111 95.0476 183.044 95.0216 182.975 95.0218H46.0036C45.971 95.0209 45.9386 95.027 45.9086 95.0396C45.8786 95.0523 45.8516 95.0713 45.8295 95.0953C45.8075 95.1193 45.7908 95.1477 45.7807 95.1787C45.7706 95.2097 45.7672 95.2425 45.7708 95.2749C45.7796 95.3459 45.8145 95.4112 45.8688 95.458C45.923 95.5048 45.9928 95.5297 46.0643 95.5279Z" fill="#E0E0E0"/>
<path d="M44.6811 79.8758H181.653C181.685 79.8759 181.717 79.8693 181.747 79.8563C181.776 79.8434 181.803 79.8244 181.825 79.8006C181.847 79.7768 181.864 79.7487 181.874 79.7181C181.884 79.6874 181.888 79.655 181.886 79.6228C181.878 79.5538 181.846 79.49 181.794 79.4434C181.743 79.3968 181.677 79.3706 181.607 79.3697H44.6355C44.603 79.3688 44.5706 79.3749 44.5405 79.3875C44.5105 79.4002 44.4836 79.4192 44.4615 79.4432C44.4394 79.4672 44.4227 79.4956 44.4126 79.5266C44.4025 79.5576 44.3991 79.5904 44.4028 79.6228C44.4112 79.6913 44.4439 79.7544 44.495 79.8009C44.5461 79.8473 44.6121 79.8739 44.6811 79.8758Z" fill="#E0E0E0"/>
<path d="M43.3134 64.2187H180.285C180.318 64.2196 180.35 64.2136 180.38 64.2009C180.41 64.1882 180.437 64.1693 180.459 64.1453C180.481 64.1213 180.498 64.0928 180.508 64.0618C180.518 64.0309 180.522 63.9981 180.518 63.9657C180.509 63.8972 180.477 63.834 180.426 63.7876C180.375 63.7411 180.309 63.7146 180.24 63.7127H43.2679C43.2357 63.7125 43.2038 63.7191 43.1744 63.7321C43.145 63.745 43.1187 63.7641 43.0972 63.788C43.0757 63.8119 43.0594 63.8401 43.0496 63.8707C43.0398 63.9014 43.0365 63.9337 43.0401 63.9657C43.0452 64.0346 43.0763 64.099 43.127 64.146C43.1777 64.1929 43.2443 64.2189 43.3134 64.2187Z" fill="#E0E0E0"/>
<path d="M41.9501 48.5648H178.922C178.954 48.5657 178.987 48.5596 179.017 48.547C179.047 48.5343 179.074 48.5153 179.096 48.4913C179.118 48.4673 179.135 48.4389 179.145 48.4079C179.155 48.3769 179.158 48.3441 179.155 48.3117C179.148 48.2433 179.117 48.1795 179.067 48.1328C179.016 48.0861 178.95 48.0597 178.881 48.0587H41.9045C41.8721 48.0577 41.8399 48.0637 41.81 48.0764C41.7802 48.0891 41.7535 48.1082 41.7319 48.1323C41.7102 48.1564 41.694 48.185 41.6845 48.2159C41.675 48.2469 41.6723 48.2796 41.6768 48.3117C41.6819 48.3807 41.713 48.4451 41.7637 48.492C41.8144 48.539 41.881 48.565 41.9501 48.5648Z" fill="#E0E0E0"/>
<path d="M64.5304 111.181C64.5628 111.183 64.5951 111.176 64.6249 111.164C64.6547 111.151 64.6814 111.132 64.7031 111.108C64.7248 111.084 64.7409 111.055 64.7505 111.024C64.76 110.993 64.7626 110.961 64.7582 110.928L57.9313 32.6604C57.9251 32.5919 57.8937 32.5281 57.8432 32.4814C57.7928 32.4347 57.7268 32.4083 57.6581 32.4073C57.6255 32.4064 57.5931 32.4125 57.563 32.4251C57.533 32.4378 57.506 32.4568 57.484 32.4808C57.4619 32.5048 57.4452 32.5332 57.4351 32.5642C57.425 32.5952 57.4216 32.628 57.4253 32.6604L64.2521 110.928C64.2595 110.997 64.2919 111.061 64.3432 111.108C64.3945 111.154 64.4611 111.181 64.5304 111.181Z" fill="#E0E0E0"/>
<path d="M81.6544 111.182C81.687 111.182 81.7194 111.176 81.7495 111.164C81.7795 111.151 81.8065 111.132 81.8285 111.108C81.8506 111.084 81.8673 111.056 81.8774 111.025C81.8875 110.994 81.8909 110.961 81.8873 110.928L75.0604 32.6604C75.053 32.5915 75.0206 32.5276 74.9693 32.481C74.918 32.4344 74.8514 32.4082 74.7821 32.4073C74.7497 32.4063 74.7174 32.4123 74.6876 32.4251C74.6578 32.4378 74.6311 32.4568 74.6094 32.4809C74.5877 32.505 74.5716 32.5336 74.5621 32.5646C74.5525 32.5956 74.5499 32.6283 74.5543 32.6604L81.3812 110.928C81.3863 110.997 81.4173 111.062 81.468 111.109C81.5187 111.156 81.5853 111.182 81.6544 111.182Z" fill="#E0E0E0"/>
<path d="M98.7714 111.182C98.804 111.182 98.8364 111.176 98.8664 111.164C98.8965 111.151 98.9234 111.132 98.9455 111.108C98.9675 111.084 98.9842 111.056 98.9943 111.025C99.0045 110.994 99.0078 110.961 99.0042 110.928L92.1774 32.6604C92.17 32.5915 92.1375 32.5276 92.0862 32.481C92.035 32.4344 91.9683 32.4082 91.899 32.4073C91.8666 32.4063 91.8344 32.4123 91.8046 32.4251C91.7748 32.4378 91.7481 32.4568 91.7264 32.4809C91.7047 32.505 91.6885 32.5336 91.679 32.5646C91.6695 32.5956 91.6669 32.6283 91.6713 32.6604L98.4981 110.928C98.5044 110.997 98.5358 111.061 98.5862 111.107C98.6367 111.154 98.7026 111.181 98.7714 111.182Z" fill="#E0E0E0"/>
<path d="M115.9 111.181C115.932 111.182 115.965 111.176 115.995 111.164C116.025 111.151 116.052 111.132 116.074 111.108C116.096 111.084 116.113 111.056 116.123 111.025C116.133 110.994 116.136 110.961 116.133 110.928L109.321 32.6604C109.315 32.5919 109.283 32.5281 109.233 32.4814C109.182 32.4347 109.116 32.4083 109.048 32.4073C109.015 32.4064 108.983 32.4125 108.953 32.4251C108.923 32.4378 108.896 32.4568 108.874 32.4808C108.852 32.5048 108.835 32.5332 108.825 32.5642C108.815 32.5952 108.811 32.628 108.815 32.6604L115.621 110.928C115.628 110.998 115.66 111.062 115.711 111.109C115.763 111.156 115.83 111.182 115.9 111.181Z" fill="#E0E0E0"/>
<path d="M133.017 111.181C133.05 111.183 133.082 111.176 133.112 111.164C133.142 111.151 133.168 111.132 133.19 111.108C133.212 111.084 133.228 111.055 133.237 111.024C133.247 110.993 133.249 110.961 133.245 110.928L126.418 32.6604C126.413 32.5914 126.382 32.527 126.331 32.4801C126.281 32.4331 126.214 32.4071 126.145 32.4073C126.112 32.4064 126.08 32.4125 126.05 32.4251C126.02 32.4378 125.993 32.4568 125.971 32.4808C125.949 32.5048 125.932 32.5332 125.922 32.5642C125.912 32.5952 125.908 32.628 125.912 32.6604L132.739 110.928C132.746 110.997 132.779 111.061 132.83 111.108C132.881 111.154 132.948 111.181 133.017 111.181Z" fill="#E0E0E0"/>
<path d="M150.138 111.182C150.17 111.182 150.203 111.176 150.233 111.164C150.263 111.151 150.29 111.132 150.312 111.108C150.334 111.084 150.35 111.056 150.361 111.025C150.371 110.994 150.374 110.961 150.37 110.928L143.544 32.6604C143.536 32.5915 143.504 32.5276 143.452 32.481C143.401 32.4344 143.335 32.4082 143.265 32.4073C143.233 32.4063 143.201 32.4123 143.171 32.4251C143.141 32.4378 143.114 32.4568 143.093 32.4809C143.071 32.505 143.055 32.5336 143.045 32.5646C143.036 32.5956 143.033 32.6283 143.038 32.6604L149.864 110.928C149.869 110.997 149.9 111.062 149.951 111.109C150.002 111.156 150.069 111.182 150.138 111.182Z" fill="#E0E0E0"/>
<path d="M167.262 111.182C167.295 111.182 167.327 111.176 167.357 111.164C167.387 111.151 167.414 111.132 167.436 111.108C167.458 111.084 167.475 111.056 167.485 111.025C167.495 110.994 167.499 110.961 167.495 110.928L160.668 32.6604C160.661 32.5915 160.628 32.5276 160.577 32.481C160.526 32.4344 160.459 32.4082 160.39 32.4073C160.357 32.4063 160.325 32.4123 160.295 32.4251C160.265 32.4378 160.239 32.4568 160.217 32.4809C160.195 32.505 160.179 32.5336 160.17 32.5646C160.16 32.5956 160.158 32.6283 160.162 32.6604L166.989 110.928C166.995 110.997 167.026 111.061 167.077 111.107C167.127 111.154 167.193 111.181 167.262 111.182Z" fill="#E0E0E0"/>
<path d="M153.968 144.335C153.62 144.584 153.222 144.832 152.874 145.081C152.477 145.329 152.129 145.578 151.731 145.776C151.383 145.975 151.085 146.174 150.737 146.373C150.688 146.422 150.638 146.422 150.588 146.472C149.445 147.168 148.253 147.814 147.06 148.41C146.712 148.609 146.314 148.808 145.966 148.957C145.966 148.957 145.917 149.007 145.867 149.007C145.469 149.206 145.072 149.404 144.674 149.603C143.879 150.001 143.034 150.349 142.239 150.696C141.842 150.895 141.394 151.044 140.997 151.193C140.599 151.342 140.152 151.541 139.754 151.69C139.357 151.839 138.909 152.038 138.512 152.187C138.512 152.187 138.512 152.187 138.462 152.187C138.064 152.336 137.617 152.486 137.22 152.635C136.325 152.933 135.381 153.231 134.486 153.529C134.188 153.629 133.84 153.728 133.542 153.827C132.598 154.126 131.653 154.374 130.709 154.573C130.361 154.672 130.013 154.722 129.616 154.821C128.721 155.02 127.777 155.219 126.883 155.418C126.684 155.467 126.535 155.467 126.336 155.517C126.038 155.567 125.69 155.617 125.392 155.666C124.944 155.716 124.547 155.815 124.099 155.865C123.901 155.915 123.702 155.915 123.503 155.964C123.255 156.014 122.956 156.064 122.658 156.064C121.863 156.163 121.018 156.263 120.223 156.362C119.975 156.412 119.676 156.412 119.428 156.461H119.378C119.03 156.511 118.682 156.511 118.335 156.561C117.987 156.61 117.639 156.61 117.291 156.61C117.092 156.61 116.844 156.66 116.645 156.66C116.247 156.66 115.899 156.71 115.551 156.71C115.054 156.71 114.607 156.76 114.11 156.76C113.613 156.76 113.166 156.76 112.669 156.76C112.321 156.76 111.973 156.76 111.625 156.76C90.7026 156.461 71.8174 147.565 58.3991 133.451C58.3991 133.451 58.3991 133.402 58.3494 133.402C59.89 130.37 65.6052 124.903 71.569 120.381C79.123 114.666 89.808 111.137 89.808 111.137C89.808 111.137 96.8154 109.994 122.807 115.411C142.637 119.586 151.085 136.533 153.968 144.335Z" fill="white"/>
<path d="M128.328 129.178C127.284 134.296 120.525 137.328 109.144 132.756C95.1791 127.09 89.8118 111.137 89.8118 111.137C89.0663 99.7068 87.3269 89.9163 87.3269 89.9163C103.479 88.5248 122.563 107.41 122.563 107.41L124.749 116.753C124.948 117.548 125.346 118.244 125.942 118.741C126.986 120.53 129.023 125.897 128.328 129.178Z" fill="white"/>
<path d="M125.937 118.791C116.445 118.294 109.438 116.903 101.933 103.435C108.295 109.05 115.799 111.187 123.701 112.181L124.745 116.754C124.943 117.598 125.341 118.294 125.937 118.791Z" fill="#E2B5FF"/>
<path d="M145.57 58.9049C146.464 63.0795 146.912 66.4589 144.476 77.5912C142.041 88.7235 146.713 99.8558 134.984 110.044C127.082 116.902 113.266 118.194 102.233 110.69C98.506 108.155 95.0769 104.627 92.2938 100.005C90.1071 96.377 87.5725 92.9478 84.7398 89.8169C80.8136 85.5428 76.0924 76.9451 78.4281 61.7376C82.2052 36.9882 106.706 34.1554 121.168 36.8888C135.63 39.6222 143.135 47.872 145.57 58.9049Z" fill="white"/>
<path d="M98.005 78.3363C98.005 78.3363 96.4644 70.8816 89.2086 71.7762C82.9466 72.5713 80.7599 87.5801 94.9735 91.7547" fill="white"/>
<path d="M94.5305 84.947C94.5305 84.947 92.7413 83.8039 92.9401 81.816C93.2383 79.4802 92.9401 78.039 91.8468 77.5917C89.1134 76.4487 88.5667 79.6293 88.6661 80.0269" stroke="#191A1B" stroke-width="1.54582" stroke-miterlimit="10" stroke-linecap="round" stroke-linejoin="round"/>
<path d="M132.447 89.7679C132.447 89.7679 134.336 89.8673 136.125 87.7303C137.119 86.5375 137.964 85.0466 137.417 84.5993C136.87 84.1023 127.875 85.4939 127.279 86.6866C126.682 87.8794 130.161 89.7679 132.447 89.7679Z" fill="#E2B5FF"/>
<path d="M133.938 73.0688C133.938 73.0688 134.037 77.7901 137.069 83.0581C138.41 85.3939 136.373 89.2206 131.95 89.8667" stroke="#191A1B" stroke-width="1.54582" stroke-miterlimit="10" stroke-linecap="round" stroke-linejoin="round"/>
<path opacity="0.42" d="M106.998 92.3014C109.825 92.3014 112.117 90.4101 112.117 88.0771C112.117 85.7441 109.825 83.8528 106.998 83.8528C104.171 83.8528 101.879 85.7441 101.879 88.0771C101.879 90.4101 104.171 92.3014 106.998 92.3014Z" fill="#E2B5FF"/>
<path opacity="0.42" d="M143.679 83.9531C143.53 86.7362 143.58 89.4696 143.381 92.2029C141.195 91.706 139.604 90.0659 139.604 88.1277C139.604 86.0404 141.344 84.3507 143.679 83.9531Z" fill="#E2B5FF"/>
<path d="M146.966 72.7734C148.309 65.2132 147.911 62.2289 147.116 58.6975C146.867 57.6033 146.568 56.5587 146.22 55.5142C143.584 53.4252 140.799 52.0823 136.571 51.4855C125.181 49.9436 116.178 50.9881 106.579 53.0771C100.561 54.3703 101.804 75.1608 99.4664 77.8964C99.0685 76.5038 97.1287 70.8336 90.7622 71.6294C84.7439 72.3755 82.4559 86.3022 94.8904 91.0771C94.791 93.8127 92.2543 98.886 90.2151 100.03C90.2151 100.03 89.8669 96.399 85.8878 91.6242C81.9088 86.8493 73.9507 74.4645 79.3224 56.3598C84.6941 38.2551 109.016 28.8048 131.647 38.0064C135.527 39.598 138.71 41.8362 141.246 44.1739C147.215 49.6451 150.398 57.6033 149.453 65.6111C149.205 68.297 148.458 70.8834 146.966 72.7734Z" fill="#191A1B"/>
<path d="M139.207 50.1425C139.207 50.1425 124.534 72.6242 97.1783 65.6608C97.1783 65.6608 91.8563 52.2813 103.445 47.1582C115.084 42.0849 136.422 45.6661 139.207 50.1425Z" fill="#191A1B"/>
<path d="M137.665 50.4409C137.665 50.4409 139.555 55.6634 143.286 59.8912C145.723 62.6268 148.906 64.9147 152.885 65.0142C152.885 65.0142 154.129 51.4854 145.275 46.2132C136.422 40.8912 137.665 50.4409 137.665 50.4409Z" fill="#191A1B"/>
<path d="M101.307 41.8363C101.307 41.8363 85.2908 16.9174 71.2149 34.9724C57.139 53.0274 72.5081 100.179 63.9531 114.355C63.9531 114.355 73.7515 107.242 76.3379 93.3153C76.3379 93.3153 76.6364 99.0849 74.8955 107.143C74.8955 107.143 85.2908 95.1556 85.2908 80.7813C85.2908 66.4069 95.6861 45.5169 101.307 41.8363Z" fill="#191A1B"/>
<path d="M147.861 69.8885C149.652 77.4985 147.861 90.6791 147.861 90.6791C147.861 90.6791 169.746 55.9121 152.039 42.7315C137.118 31.5901 104.937 42.9304 104.937 42.9304C104.937 42.9304 135.128 35.6686 140.997 49.5456C146.369 62.0796 146.966 57.7524 148.657 65.2131C148.906 65.9592 147.613 68.844 147.861 69.8885Z" fill="#191A1B"/>
<path d="M176.903 175.086H44.7568C44.7568 175.086 45.5023 152.026 53.0564 135.576C58.7716 123.152 72.2397 116.244 82.2786 112.666C85.1114 111.672 87.6957 110.926 89.6836 110.38C89.6836 110.628 89.7333 110.827 89.7333 111.075C89.7333 111.075 95.1006 127.028 109.066 132.694C120.446 137.316 127.205 134.235 128.249 129.116C128.895 125.836 126.857 120.468 125.814 118.729C125.217 118.232 124.82 117.486 124.621 116.741L124.224 115.101C125.168 114.902 126.062 114.654 126.957 114.355C127.255 114.256 127.504 114.157 127.802 114.057C134.213 115.747 143.854 119.773 155.235 129.314C168.107 140.049 176.903 175.086 176.903 175.086Z" fill="#7520C7"/>
<path d="M69.3626 175.087L67.1262 156.649" stroke="#191A1B" stroke-width="1.54582" stroke-miterlimit="10" stroke-linecap="round" stroke-linejoin="round"/>
<path d="M156.136 150.387C156.136 150.387 154.645 154.015 155.092 157.643C155.54 161.271 156.832 166.589 154.993 175.087" stroke="#191A1B" stroke-width="1.54582" stroke-miterlimit="10" stroke-linecap="round" stroke-linejoin="round"/>
<path d="M51.7797 118.463C53.1542 134.962 63.9683 147.205 69.1163 161.266C72.0549 169.292 71.3231 176.032 70.2329 178.849C65.9691 189.864 62.0606 188.62 55.3096 188.62C49.4469 188.62 46.8192 183.955 43.0519 176.539C38.2691 167.125 39.1435 143.332 36.6555 129.993C35.3527 130.111 30.5804 130.135 26.8851 129.993C22.266 129.815 14.2714 129.105 13.7384 126.973C13.3387 125.374 16.2256 125.196 16.7586 125.196C17.185 125.196 20.9632 124.782 22.799 124.663C21.1408 124.426 17.185 123.455 13.2055 122.176C8.23104 120.577 6.98743 118.445 6.80977 117.735C6.46507 116.356 8.40869 115.721 9.29698 115.958C8.34947 115.307 6.27679 113.471 6.98743 112.05C7.87571 110.273 10.0076 110.806 11.2512 111.694C12.2735 112.424 18.8905 115.07 19.4235 114.892C19.9565 114.714 18.7129 114.359 15.1597 112.583C11.6065 110.806 11.2512 107.05 13.0278 106.542C14.8044 106.035 16.4033 108.319 22.266 110.451C28.1666 112.596 36.301 112.227 35.9456 112.05C35.5903 111.872 27.2404 108.496 27.2404 105.832C27.2404 103.167 29.9454 103.451 31.3265 104.055C34.1691 105.299 34.2723 105.199 39.1435 106.542C44.2955 107.963 51.3991 113.894 51.7797 118.463Z" fill="white"/>
<path d="M176.592 122.636C175.218 139.135 164.404 151.378 159.255 165.439C156.317 173.465 157.049 180.205 158.139 183.022C162.403 194.037 166.311 192.793 173.062 192.793C178.925 192.793 181.553 188.128 185.32 180.713C190.103 171.298 189.228 147.505 191.716 134.166C193.019 134.285 197.791 134.308 201.487 134.166C206.106 133.988 214.1 133.278 214.633 131.146C215.033 129.547 212.146 129.369 211.613 129.369C211.187 129.369 207.409 128.955 205.573 128.836C207.231 128.6 211.187 127.628 215.166 126.349C220.141 124.75 221.384 122.618 221.562 121.908C221.907 120.529 219.963 119.894 219.075 120.131C220.022 119.48 222.095 117.644 221.384 116.223C220.496 114.446 218.364 114.979 217.121 115.867C216.098 116.598 209.481 119.243 208.948 119.065C208.415 118.888 209.659 118.532 213.212 116.756C216.765 114.979 217.121 111.223 215.344 110.715C213.567 110.208 211.969 112.492 206.106 114.624C200.205 116.769 192.071 116.4 192.426 116.223C192.782 116.045 201.131 112.67 201.131 110.005C201.131 107.34 198.426 107.624 197.045 108.228C194.203 109.472 194.1 109.372 189.228 110.715C184.076 112.136 176.973 118.067 176.592 122.636Z" fill="white"/>
<path d="M116.219 78.2865C115.029 78.2369 114.136 77.2446 114.235 76.054L114.284 74.6648C114.334 73.4742 115.326 72.5812 116.517 72.6804C117.708 72.73 118.601 73.7222 118.501 74.9129L118.452 76.302C118.402 77.4431 117.41 78.3361 116.219 78.2865Z" fill="#191A1B"/>
<path d="M137.109 79.0297C136.018 78.9801 135.174 78.0375 135.224 76.946L135.273 75.6561C135.323 74.5647 136.266 73.7213 137.357 73.7709C138.448 73.8205 139.292 74.7631 139.242 75.8546L139.193 77.1445C139.143 78.2359 138.2 79.0793 137.109 79.0297Z" fill="#191A1B"/>
<path d="M121.036 75.4072C121.036 75.4072 119.747 73.5716 117.514 73.2243C115.678 72.9266 113.644 73.8196 113.347 74.8615" stroke="#191A1B" stroke-width="1.48834" stroke-miterlimit="10" stroke-linecap="round" stroke-linejoin="round"/>
<path d="M135.666 75.8554C135.666 75.8554 135.666 74.2678 137.948 74.2678C139.833 74.2678 140.627 76.0042 140.627 76.0042" stroke="#191A1B" stroke-width="1.48834" stroke-miterlimit="10" stroke-linecap="round" stroke-linejoin="round"/>
<path d="M123.862 66.7751C124.954 66.6759 125.5 65.386 124.904 64.3937C124.557 63.8976 124.111 63.4511 123.466 63.2031C121.58 62.6077 115.429 63.9472 112.75 67.0231C110.368 69.851 118.901 67.2216 123.862 66.7751Z" fill="#191A1B"/>
<path d="M136.956 67.5689C136.113 67.3209 135.865 66.0806 136.56 65.2868C136.907 64.8899 137.403 64.5426 137.949 64.4434C139.635 64.1458 143.505 65.6837 144.597 68.6108C145.589 71.141 140.975 68.5612 136.956 67.5689Z" fill="#191A1B"/>
<path opacity="0.6" d="M136.7 84.6855C136.7 84.6855 137.297 88.065 141.223 89.7547C142.217 90.1523 143.26 89.5062 143.26 88.4129C143.211 88.4129 136.949 85.0831 136.7 84.6855Z" fill="#191A1B"/>
<path opacity="0.6" d="M127.257 76.5359C127.257 76.5359 130.438 73.3552 132.028 73.0073L127.804 74.0013L127.257 76.5359Z" fill="#191A1B"/>
<path opacity="0.6" d="M106.039 84.6855C106.039 84.6855 107.878 88.8602 113.394 89.8541C118.911 90.8978 123.93 86.9219 126.266 80.2625C126.266 80.2625 124.377 86.425 116.823 87.568C109.319 88.8105 106.039 84.6855 106.039 84.6855Z" fill="#191A1B"/>
<path opacity="0.29" d="M114.934 62.3721C107.926 62.3721 102.211 68.2364 102.161 75.3929C102.161 78.7723 103.404 81.8536 105.441 84.09L123.482 65.8509C121.245 63.6642 118.263 62.3721 114.934 62.3721Z" fill="#DBC3ED"/>
<path opacity="0.23" d="M123.48 65.8499L105.44 84.0889C107.726 86.6235 110.957 88.1641 114.535 88.1641C121.443 88.1641 127.108 82.4489 127.307 75.3421C127.407 71.6148 125.916 68.2353 123.48 65.8499Z" fill="#C4ADD8"/>
<path opacity="0.29" d="M144.008 62.3721C138.69 62.3721 134.217 68.2364 134.018 75.3929C133.919 78.2753 134.565 80.9093 135.658 83.0463L151.413 67.4412C149.773 64.36 147.089 62.3721 144.008 62.3721Z" fill="#DBC3ED"/>
<path opacity="0.23" d="M151.412 67.3918L135.657 82.9969C137.297 86.1279 139.981 88.1655 143.112 88.1655C148.33 88.1655 152.803 82.4503 153.101 75.3435C153.201 72.4113 152.555 69.6282 151.412 67.3918Z" fill="#C4ADD8"/>
<path d="M127.312 75.3929C127.163 82.4997 121.447 88.2149 114.539 88.2149C107.631 88.2149 102.115 82.4997 102.115 75.3929C102.165 68.2364 107.88 62.3721 114.887 62.3721C121.895 62.3721 127.511 68.2364 127.312 75.3929Z" stroke="#7520C7" stroke-width="1.54582" stroke-miterlimit="10" stroke-linecap="round" stroke-linejoin="round"/>
<path d="M153.103 75.3929C152.805 82.4997 148.332 88.2149 143.114 88.2149C137.896 88.2149 133.82 82.4997 134.019 75.3929C134.218 68.2364 138.691 62.3721 144.008 62.3721C149.326 62.3721 153.401 68.2364 153.103 75.3929Z" stroke="#7520C7" stroke-width="1.54582" stroke-miterlimit="10" stroke-linecap="round" stroke-linejoin="round"/>
<path d="M102.263 74.001H95.2056" stroke="#7520C7" stroke-width="1.54582" stroke-miterlimit="10" stroke-linecap="round" stroke-linejoin="round"/>
<path d="M127.362 74.0012C127.362 74.0012 133.276 71.7151 134.021 74.0012" stroke="#7520C7" stroke-width="1.54582" stroke-miterlimit="10" stroke-linecap="round" stroke-linejoin="round"/>
<path d="M122.204 99.6468C122.204 99.6468 125.295 96.2913 131.099 97.6451" stroke="#191A1B" stroke-width="1.18751" stroke-miterlimit="10" stroke-linecap="round" stroke-linejoin="round"/>
</g>
<defs>
<clipPath id="clip0_78_5985">
<rect width="228.846" height="175" fill="white" transform="translate(0.078125)"/>
</clipPath>
</defs>
</svg>
