<svg width="297" height="297" viewBox="0 0 297 297" fill="none" xmlns="http://www.w3.org/2000/svg">
<rect x="59.0415" y="46.366" width="174.195" height="205.676" fill="#D2AFFF"/>
<rect x="60.0913" y="31.6747" width="173.146" height="56.6658" fill="white"/>
<line x1="59.5664" y1="47.4153" x2="233.237" y2="47.4153" stroke="#FFBAEC" stroke-width="2.09873"/>
<line x1="84.2266" y1="29.0513" x2="84.2266" y2="88.3406" stroke="#FFBAEC" stroke-width="2.09873"/>
<line x1="209.101" y1="29.0513" x2="209.101" y2="88.3406" stroke="#FFBAEC" stroke-width="2.09873"/>
<line x1="59.5664" y1="59.483" x2="233.237" y2="59.483" stroke="#FFBAEC" stroke-width="2.09873"/>
<path fill-rule="evenodd" clip-rule="evenodd" d="M53.7949 28.002H239.008V247.32H230.089V78.8963H62.7146V247.32H53.7949V28.002ZM62.7146 36.9216H230.089V69.9767H62.7146V36.9216Z" fill="#F23DC0"/>
<path d="M133.772 207.553C134.095 207.783 134.463 208.013 134.785 208.244C135.154 208.474 135.476 208.704 135.844 208.888C136.167 209.072 136.443 209.257 136.765 209.441C136.811 209.487 136.857 209.487 136.903 209.533C137.962 210.177 139.067 210.776 140.172 211.328C140.494 211.513 140.863 211.697 141.185 211.835C141.185 211.835 141.231 211.881 141.277 211.881C141.645 212.065 142.014 212.249 142.382 212.433C143.119 212.802 143.901 213.124 144.638 213.446C145.006 213.631 145.421 213.769 145.789 213.907C146.157 214.045 146.572 214.229 146.94 214.367C147.308 214.505 147.723 214.689 148.091 214.828C148.091 214.828 148.091 214.828 148.137 214.828C148.506 214.966 148.92 215.104 149.288 215.242C150.117 215.518 150.992 215.794 151.82 216.071C152.097 216.163 152.419 216.255 152.695 216.347C153.57 216.623 154.445 216.853 155.32 217.038C155.642 217.13 155.964 217.176 156.333 217.268C157.161 217.452 158.036 217.636 158.865 217.82C159.049 217.866 159.187 217.866 159.371 217.912C159.647 217.958 159.97 218.004 160.246 218.05C160.66 218.096 161.029 218.189 161.443 218.235C161.627 218.281 161.811 218.281 161.996 218.327C162.226 218.373 162.502 218.419 162.778 218.419C163.515 218.511 164.298 218.603 165.034 218.695C165.264 218.741 165.541 218.741 165.771 218.787H165.817C166.139 218.833 166.462 218.833 166.784 218.879C167.106 218.925 167.428 218.925 167.751 218.925C167.935 218.925 168.165 218.971 168.349 218.971C168.718 218.971 169.04 219.017 169.362 219.017C169.823 219.017 170.237 219.063 170.697 219.063C171.158 219.063 171.572 219.063 172.033 219.063C172.355 219.063 172.677 219.063 172.999 219.063C192.383 218.787 209.878 210.546 222.309 197.47C222.309 197.47 222.309 197.424 222.355 197.424C220.928 194.616 215.633 189.551 210.109 185.361C203.11 180.067 193.211 176.798 193.211 176.798C193.211 176.798 186.72 175.739 162.64 180.757C144.27 184.625 136.443 200.325 133.772 207.553Z" fill="white"/>
<path d="M157.529 193.51C158.496 198.253 164.758 201.061 175.301 196.825C188.239 191.577 193.211 176.797 193.211 176.797C193.902 166.208 195.513 157.138 195.513 157.138C180.55 155.849 162.87 173.344 162.87 173.344L160.844 182C160.66 182.737 160.292 183.381 159.739 183.842C158.772 185.499 156.885 190.472 157.529 193.51Z" fill="white"/>
<path d="M159.74 183.888C168.534 183.427 175.025 182.138 181.978 169.661C176.084 174.864 169.132 176.843 161.812 177.764L160.845 182C160.66 182.783 160.292 183.427 159.74 183.888Z" fill="#E2B5FF"/>
<path d="M141.553 128.408C140.724 132.276 140.31 135.406 142.566 145.72C144.822 156.033 140.494 166.346 151.36 175.784C158.681 182.138 171.48 183.335 181.701 176.383C185.154 174.035 188.331 170.766 190.909 166.484C192.935 163.123 195.283 159.946 197.908 157.046C201.545 153.086 205.919 145.121 203.755 131.032C200.256 108.104 177.557 105.48 164.159 108.012C150.761 110.544 143.809 118.187 141.553 128.408Z" fill="white"/>
<path d="M185.615 146.411C185.615 146.411 187.042 139.504 193.764 140.333C199.565 141.07 201.591 154.974 188.423 158.842" fill="white"/>
<path d="M188.837 152.534C188.837 152.534 190.495 151.475 190.311 149.633C190.034 147.47 190.311 146.134 191.324 145.72C193.856 144.661 194.362 147.608 194.27 147.976" stroke="#191A1B" stroke-width="1.43208" stroke-miterlimit="10" stroke-linecap="round" stroke-linejoin="round"/>
<path d="M153.708 157C153.708 157 151.959 157.092 150.301 155.112C149.38 154.007 148.598 152.626 149.104 152.212C149.61 151.751 157.944 153.04 158.496 154.145C159.049 155.25 155.826 157 153.708 157Z" fill="#E2B5FF"/>
<path d="M152.327 141.53C152.327 141.53 152.235 145.904 149.426 150.784C148.183 152.948 150.071 156.493 154.168 157.092" stroke="#191A1B" stroke-width="1.43208" stroke-miterlimit="10" stroke-linecap="round" stroke-linejoin="round"/>
<path opacity="0.42" d="M177.281 159.348C174.662 159.348 172.539 157.596 172.539 155.434C172.539 153.273 174.662 151.521 177.281 151.521C179.9 151.521 182.023 153.273 182.023 155.434C182.023 157.596 179.9 159.348 177.281 159.348Z" fill="#E2B5FF"/>
<path opacity="0.42" d="M143.303 151.613C143.441 154.191 143.395 156.724 143.579 159.256C145.605 158.795 147.079 157.276 147.079 155.48C147.079 153.547 145.467 151.981 143.303 151.613Z" fill="#E2B5FF"/>
<path d="M117.539 247.708H233.531C233.531 247.708 234.144 214.661 227.146 199.421C221.851 187.911 209.374 181.511 200.074 178.196C197.45 177.275 195.056 176.585 193.214 176.078C193.214 176.308 193.168 176.493 193.168 176.723C193.168 176.723 188.195 191.502 175.258 196.751C164.714 201.032 158.453 198.178 157.486 193.436C156.887 190.397 158.775 185.425 159.742 183.813C160.295 183.353 160.663 182.662 160.847 181.971L161.215 180.452C160.341 180.268 159.512 180.038 158.683 179.761C158.407 179.669 158.177 179.577 157.9 179.485C151.961 181.051 143.029 184.78 132.486 193.62C120.561 203.611 117.539 247.708 117.539 247.708Z" fill="#7020C7"/>
<mask id="mask0_21_3877" style="mask-type:alpha" maskUnits="userSpaceOnUse" x="117" y="176" width="117" height="72">
<path d="M117.024 247.192H233.789C233.789 247.192 234.144 214.66 227.146 199.421C221.851 187.91 209.374 181.511 200.074 178.196C197.45 177.275 195.056 176.584 193.214 176.078C193.214 176.308 193.168 176.492 193.168 176.722C193.168 176.722 188.195 191.502 175.258 196.75C164.714 201.032 158.453 198.178 157.486 193.435C156.887 190.397 158.775 185.424 159.742 183.813C160.295 183.352 160.663 182.662 160.847 181.971L161.215 180.452C160.341 180.268 159.512 180.037 158.683 179.761C158.407 179.669 158.177 179.577 157.9 179.485C151.961 181.05 143.029 184.78 132.486 193.62C120.561 203.61 117.024 247.192 117.024 247.192Z" fill="#CE3E3E"/>
</mask>
<g mask="url(#mask0_21_3877)">
<path d="M187.061 184.291L193.247 190.477L187.061 196.663L180.875 190.477L187.061 184.291Z" fill="white"/>
<path d="M162.836 184.31L169.021 190.495L162.836 196.681L156.65 190.495L162.836 184.31Z" fill="white"/>
<path d="M211.318 184.306L217.504 190.491L211.318 196.677L205.133 190.491L211.318 184.306Z" fill="#AF5CFF"/>
<path d="M138.902 184.291L145.088 190.477L138.902 196.662L132.717 190.477L138.902 184.291Z" fill="#AF5CFF"/>
<path d="M198.265 206.409L204.451 212.594L198.265 218.78L192.08 212.594L198.265 206.409Z" fill="#AF5CFF"/>
<path d="M174.008 206.394L180.193 212.58L174.008 218.766L167.822 212.58L174.008 206.394Z" fill="#AF5CFF"/>
<path d="M150.106 206.408L156.292 212.594L150.106 218.779L143.921 212.594L150.106 206.408Z" fill="#AF5CFF"/>
<path d="M187.057 232.126L193.242 238.311L187.057 244.497L180.871 238.311L187.057 232.126Z" fill="#AF5CFF"/>
<path d="M162.832 232.144L169.017 238.33L162.832 244.515L156.646 238.33L162.832 232.144Z" fill="#AF5CFF"/>
<path d="M211.314 232.14L217.5 238.326L211.314 244.511L205.129 238.326L211.314 232.14Z" fill="#AF5CFF"/>
<path d="M138.898 232.125L145.084 238.311L138.898 244.497L132.713 238.311L138.898 232.125Z" fill="white"/>
</g>
<path d="M165.037 194.863C165.037 194.863 168.213 197.257 167.523 199.513C166.878 201.769 160.709 201.401 159.512 199.513C158.361 197.625 163.517 194.448 165.037 194.863Z" fill="#7020C7"/>
<path d="M165.083 194.817C165.037 194.863 165.037 194.863 164.991 194.909C164.991 194.863 164.991 194.817 164.991 194.817C165.037 194.771 165.083 194.771 165.083 194.817Z" fill="white"/>
<path d="M177.284 192.975C190.221 187.726 193.168 176.722 193.168 176.722C193.168 176.492 193.214 176.308 193.214 176.078C193.26 175.387 193.398 173.408 193.49 172.717C194.319 172.993 195.332 173.546 196.253 174.052C197.91 175.019 199.245 176.4 200.074 178.104C200.074 178.15 200.12 178.15 200.12 178.196C200.212 190.305 188.38 199.559 179.125 202.874C173.508 204.9 167.201 201.999 165.405 196.336C165.267 195.83 165.129 195.369 165.037 194.863C165.083 194.817 165.083 194.817 165.129 194.771C168.121 195.415 172.219 195.001 177.284 192.975Z" fill="#7020C7"/>
<path d="M153.757 191.041C154.539 184.642 156.611 182.156 158.637 179.715C159.466 179.992 160.847 180.314 161.722 180.498C161.722 180.498 158.729 184.365 159.512 189.614C159.88 192.1 161.768 193.988 164.991 194.725C164.991 194.771 164.991 194.771 165.037 194.817C163.84 196.198 162.504 197.395 161.031 198.362C158.637 199.973 155.322 198.914 154.355 196.198C153.757 194.633 153.526 192.837 153.757 191.041Z" fill="#7020C7"/>
<path d="M211.106 242.553L214.117 218.988" stroke="#191A1B" stroke-width="1.43208" stroke-miterlimit="10" stroke-linecap="round" stroke-linejoin="round"/>
<path d="M131.657 213.141C131.657 213.141 133.038 216.502 132.624 219.863C132.209 223.224 131.012 228.151 132.716 236.024" stroke="#191A1B" stroke-width="1.43208" stroke-miterlimit="10" stroke-linecap="round" stroke-linejoin="round"/>
<path d="M81.8656 140.284C82.1281 138.973 83.9642 139.059 85.476 139.078C86.9878 139.098 89.3825 139.138 89.3825 139.138L97.1956 139.258L112.822 139.497L117.019 191.179L86.3254 190.654L83.9474 164.836L82.6525 152.09L82.1279 146.581C82.1279 146.581 81.603 141.596 81.8656 140.284Z" fill="#F23DC0"/>
<path d="M133.635 251.189C129.769 238.142 120.226 225.276 116.269 218.601L127.775 200.098C131.319 201.004 135.701 209.064 136.595 210.054C137.489 211.045 149.612 229.192 153.568 242.008L145.051 255.176L133.967 265.897C135.265 261.76 135.857 258.691 133.635 251.189Z" fill="#7020C7"/>
<path d="M138.683 232.629L144.868 238.814L138.683 245L132.497 238.814L138.683 232.629Z" fill="#AF5CFF"/>
<path d="M79.2418 182.259C76.3185 173.682 80.2592 167.442 83.964 165.207C85.8264 163.586 92.6552 157.861 95.2444 157.861C99.5227 157.861 97.7768 161.328 96.5183 163.452L89.5717 171.788C93.951 170.832 103.138 169.215 104.854 170.399C106.998 171.879 107.451 177.893 107.451 184.231C107.451 189.867 107.043 188.347 103.902 194.327C100.761 200.307 127.25 226.857 133.332 251.552C138.606 272.961 122.429 271.635 114.758 268.313C103.399 263.394 92.0832 231.71 90.7849 213.74C89.4866 195.77 82.896 192.981 79.2418 182.259Z" fill="white"/>
<path d="M97.3438 184.358C101.541 185.145 106.001 183.915 106.788 182.784" stroke="#AF5CFF" stroke-width="1.04937" stroke-linecap="round" stroke-linejoin="round"/>
<path d="M96.8188 177.012C101.016 177.799 105.476 176.569 106.263 175.438" stroke="#AF5CFF" stroke-width="1.04937" stroke-linecap="round" stroke-linejoin="round"/>
<path d="M117.019 191.179L112.822 139.497C112.21 139.497 110.618 139.445 110.198 140.284C109.673 141.334 113.871 190.129 113.871 190.916C113.871 191.546 116.32 191.179 117.019 191.179Z" fill="#A91680"/>
<path d="M166.897 144.982C167.956 144.906 168.724 143.999 168.604 142.942L168.523 141.707C168.447 140.648 167.54 139.88 166.483 140C165.424 140.076 164.656 140.983 164.776 142.04L164.857 143.275C164.932 144.29 165.839 145.058 166.897 144.982Z" fill="#191A1B"/>
<path d="M148.708 146.19C149.678 146.117 150.403 145.255 150.33 144.285L150.251 143.138C150.178 142.168 149.317 141.443 148.346 141.516C147.376 141.589 146.651 142.451 146.724 143.421L146.803 144.568C146.876 145.538 147.738 146.263 148.708 146.19Z" fill="#191A1B"/>
<path d="M163.566 141.544C163.566 141.544 164.665 139.875 166.643 139.507C168.269 139.193 170.103 139.933 170.396 140.853" stroke="#191A1B" stroke-width="1.37414" stroke-miterlimit="10" stroke-linecap="round" stroke-linejoin="round"/>
<path d="M150.791 141.769C150.791 141.769 150.502 140.935 148.471 140.996C146.793 141.046 145.636 142.542 145.636 142.542" stroke="#191A1B" stroke-width="1.37414" stroke-miterlimit="10" stroke-linecap="round" stroke-linejoin="round"/>
<path d="M161.968 135.408C161.041 135.717 160.113 134.878 160.29 133.862C160.378 133.331 160.599 132.801 161.041 132.404C162.366 131.211 167.844 130.151 171.157 131.697C174.073 133.11 166.209 133.994 161.968 135.408Z" fill="#191A1B"/>
<path d="M148.76 136.115C149.511 136.38 150.306 135.584 150.173 134.657C150.129 134.171 149.953 133.685 149.599 133.331C148.539 132.271 144.916 131.432 142.619 133.066C140.631 134.436 145.314 134.833 148.76 136.115Z" fill="#191A1B"/>
<path d="M135.515 131.365C136.804 135.37 139.613 139.099 141.593 141.309C140.35 134.311 140.718 131.549 141.455 128.28C141.685 127.267 141.961 126.3 142.283 125.333C149.512 132.377 161.897 125.425 161.897 125.425C161.897 125.425 164.521 127.589 169.125 127.083C174.052 126.576 175.387 123.538 175.387 123.538C176.722 132.838 185.516 129.293 183.905 138.547C183.444 141.079 183.444 143.519 185.608 146.052C185.976 144.763 187.772 139.514 193.665 140.25C199.236 140.941 201.354 153.833 189.844 158.253C189.982 162.534 196.796 173.262 196.566 161.291C196.52 158.851 203.518 159.035 207.339 150.978C208.997 147.479 208.537 144.21 207.8 141.862C207.063 139.606 207.109 137.166 207.846 134.91C208.675 132.285 209.319 128.326 207.8 123.538C205.222 115.342 199.697 113.455 198.269 112.488C196.842 111.521 197.303 104.43 185.194 100.471C177.367 97.8927 168.987 102.359 167.238 102.036C165.488 101.714 153.241 93.6569 143.803 101.254C134.687 108.62 138.094 117.322 138.094 117.322C138.094 117.322 132.385 121.696 135.515 131.365Z" fill="#191A1B"/>
<mask id="path-51-outside-1_21_3877" maskUnits="userSpaceOnUse" x="95.2212" y="91.5875" width="34" height="36" fill="black">
<rect fill="white" x="95.2212" y="91.5875" width="34" height="36"/>
<path fill-rule="evenodd" clip-rule="evenodd" d="M112.283 123.465C104.032 123.465 97.3439 116.777 97.3439 108.526C97.3439 100.276 104.032 93.5875 112.283 93.5875C120.533 93.5875 127.221 100.276 127.221 108.526C127.221 112.589 125.599 116.273 122.968 118.966L126.548 125.468L119.317 121.708C117.221 122.829 114.826 123.465 112.283 123.465Z"/>
</mask>
<path fill-rule="evenodd" clip-rule="evenodd" d="M112.283 123.465C104.032 123.465 97.3439 116.777 97.3439 108.526C97.3439 100.276 104.032 93.5875 112.283 93.5875C120.533 93.5875 127.221 100.276 127.221 108.526C127.221 112.589 125.599 116.273 122.968 118.966L126.548 125.468L119.317 121.708C117.221 122.829 114.826 123.465 112.283 123.465Z" fill="white"/>
<path d="M122.968 118.966L121.216 119.93C120.791 119.158 120.921 118.199 121.537 117.568L122.968 118.966ZM126.548 125.468L128.3 124.503C128.725 125.275 128.594 126.235 127.979 126.865C127.363 127.496 126.407 127.649 125.625 127.242L126.548 125.468ZM119.317 121.708L118.374 119.944C118.956 119.633 119.654 119.629 120.24 119.934L119.317 121.708ZM99.3439 108.526C99.3439 115.672 105.137 121.465 112.283 121.465V125.465C102.928 125.465 95.3439 117.881 95.3439 108.526H99.3439ZM112.283 95.5875C105.137 95.5875 99.3439 101.38 99.3439 108.526H95.3439C95.3439 99.1712 102.928 91.5875 112.283 91.5875V95.5875ZM125.221 108.526C125.221 101.38 119.428 95.5875 112.283 95.5875V91.5875C121.637 91.5875 129.221 99.1712 129.221 108.526H125.221ZM121.537 117.568C123.819 115.234 125.221 112.046 125.221 108.526H129.221C129.221 113.132 127.38 117.312 124.398 120.364L121.537 117.568ZM124.796 126.433L121.216 119.93L124.72 118.001L128.3 124.503L124.796 126.433ZM120.24 119.934L127.47 123.694L125.625 127.242L118.394 123.483L120.24 119.934ZM112.283 121.465C114.489 121.465 116.561 120.914 118.374 119.944L120.26 123.472C117.881 124.744 115.163 125.465 112.283 125.465V121.465Z" fill="#7020C7" mask="url(#path-51-outside-1_21_3877)"/>
<g clip-path="url(#clip0_21_3877)">
<path d="M112.567 107.398V109.539H105.615V107.398H112.567ZM106.429 101.974V115.293H103.685V101.974H106.429ZM114.525 101.974V115.293H111.79V101.974H114.525ZM119.529 105.395V115.293H116.885V105.395H119.529ZM116.72 102.815C116.72 102.431 116.855 102.114 117.123 101.864C117.391 101.614 117.751 101.489 118.202 101.489C118.647 101.489 119.004 101.614 119.273 101.864C119.547 102.114 119.684 102.431 119.684 102.815C119.684 103.199 119.547 103.516 119.273 103.767C119.004 104.017 118.647 104.142 118.202 104.142C117.751 104.142 117.391 104.017 117.123 103.767C116.855 103.516 116.72 103.199 116.72 102.815Z" fill="#F23DC0"/>
</g>
<path d="M153.108 164.865C153.053 165.758 153.722 167.319 154.949 168.435C161.251 164.586 164.096 166.594 164.096 166.594C166.327 163.192 165.825 158.563 160.415 162.077C156.622 164.475 154.335 164.865 153.108 164.865Z" fill="#191A1B"/>
<path d="M154.949 168.435C156.287 169.606 158.295 170.331 161.028 169.216C162.311 168.714 163.315 167.71 164.096 166.594C164.096 166.594 161.251 164.587 154.949 168.435Z" fill="#FE9DAB"/>
<path d="M152.049 164.642C152.049 164.642 154.391 165.925 160.415 162.077C167.61 157.447 166.16 167.152 161.084 169.216C155.786 171.391 153.053 166.65 153.109 164.865" stroke="#191A1B" stroke-width="1.6732" stroke-miterlimit="10" stroke-linecap="round" stroke-linejoin="round"/>
<path d="M164.096 166.594C164.096 166.594 161.251 164.587 154.949 168.435" stroke="#191A1B" stroke-width="1.6732" stroke-miterlimit="10" stroke-linecap="round" stroke-linejoin="round"/>
<path d="M218.638 259.228C221.802 253.855 220.313 239.288 218.107 232.692C216.558 229.943 213.504 223.975 213.773 221.163C214.043 218.351 211.231 204.919 209.792 198.554C211.088 194.895 212.919 189.509 216.971 190.654C222.036 192.085 232.813 209.335 236.909 225.808C241.006 242.28 236.438 250.371 228.777 261.224C222.648 269.906 213.995 267.374 211.593 266.119C212.925 265.38 215.475 264.6 218.638 259.228Z" fill="#7020C7"/>
<path d="M229.978 207.969L223.792 213.505L229.978 219.691L233.761 216.363L231.925 211.641L229.978 207.969Z" fill="#AF5CFF"/>
<path d="M210.758 260.992C219.053 264.641 226.698 261.002 229.677 256.503C232.656 252.004 232.855 245.581 232.575 239.182C232.158 229.631 228.583 220.873 225.81 212.478C222.92 203.729 222.713 190.905 223.196 186.201C223.771 180.604 227.74 174.641 230.132 170.412C232.524 166.183 231.929 161.088 227.871 157.036C223.447 152.618 216.43 154.063 213.338 156.941C211.606 158.553 208.516 162.133 206.531 166.031C205.432 163.121 202.628 157.743 200.21 159.508C197.186 161.714 201.1 178.058 204.052 181.996C207.003 185.935 205.327 191.357 201.434 218.364C197.541 245.371 200.28 256.383 210.758 260.992Z" fill="white"/>
<path d="M162.016 151.144L172.771 150.602C175.587 150.461 177.734 148.085 177.593 145.269L177.372 140.884C177.23 138.068 174.854 135.921 172.038 136.063L161.283 136.605C158.468 136.746 156.32 139.122 156.462 141.938L156.683 146.323C156.825 149.139 159.247 151.284 162.016 151.144Z" stroke="#191A1B" stroke-width="1.43755" stroke-miterlimit="10" stroke-linecap="round" stroke-linejoin="round"/>
<path d="M142.727 137.54L148.036 137.272C149.882 137.179 151.482 138.626 151.575 140.472L151.777 144.488C151.248 146.828 150.436 149.09 149.151 151.145C149.013 151.152 148.877 151.205 148.738 151.212L143.43 151.48C141.584 151.573 139.984 150.126 139.891 148.28L139.528 141.079C139.386 139.189 140.835 137.635 142.727 137.54Z" stroke="#191A1B" stroke-width="1.43755" stroke-miterlimit="10" stroke-linecap="round" stroke-linejoin="round"/>
<path d="M156.418 141.061C154.839 140.955 152.847 140.917 151.195 141.185" stroke="#191A1B" stroke-width="1.43755" stroke-miterlimit="10" stroke-linecap="round" stroke-linejoin="round"/>
<path d="M177.343 140.33L188.071 140.16" stroke="#191A1B" stroke-width="1.43755" stroke-miterlimit="10" stroke-linecap="round" stroke-linejoin="round"/>
<line x1="73.995" y1="88.3406" x2="73.995" y2="129.266" stroke="#B98FEE" stroke-width="1.57405"/>
<ellipse cx="74.2573" cy="132.152" rx="3.67279" ry="4.9845" fill="white"/>
<path d="M87.6369 216.245C82.1277 215.287 78.6298 218.955 76.8809 220.966C75.5692 224.289 73.0507 231.303 73.4704 232.772C73.8902 234.241 78.1926 235.658 80.2913 236.182C85.4507 235.745 95.6121 234.503 94.9825 233.034C94.1954 231.198 95.7695 227.525 95.7695 225.164C95.7695 222.803 93.6708 217.294 87.6369 216.245Z" fill="#EFD7FF"/>
<rect x="77.9302" y="236.445" width="16.5274" height="11.2806" fill="#7020C7"/>
<rect x="77.9302" y="231.985" width="18.6262" height="4.98447" fill="#AF5CFF"/>
<path d="M73.5776 217.819L48.9175 219.131C48.5677 216.682 46.0537 212.086 45.507 206.8C44.72 199.192 46.9737 189.223 52.8526 185.813C58.284 182.662 61.0639 188.483 67.2814 188.961C74.1023 189.486 71.4786 198.405 72.7906 199.717C74.0348 200.962 78.8245 199.455 80.6609 203.652C81.7103 208.899 77.5127 209.162 75.1516 211.785C73.2628 213.884 73.3152 216.682 73.5776 217.819Z" fill="#EFD7FF"/>
<rect x="44.875" y="225.164" width="33.0551" height="22.5614" fill="#7020C7"/>
<rect x="42.7764" y="216.245" width="37.2525" height="9.96899" fill="#AF5CFF"/>
<rect width="214.596" height="21.512" transform="matrix(1 0 0 -1 39.1035 268.832)" fill="#A91680"/>
<path d="M124.316 205.87L130.502 211.807L124.316 217.992L119.38 213.478L124.316 205.87Z" fill="#AF5CFF"/>
<path d="M233.411 91.4887C224.328 91.4887 216.971 98.8456 216.971 107.929C216.971 117.012 224.328 124.369 233.411 124.369C242.494 124.369 249.851 117.012 249.851 107.929C249.851 98.8456 242.494 91.4887 233.411 91.4887ZM242.145 116.457L231.356 109.984V97.6537H234.439V108.443L243.686 113.929L242.145 116.457Z" fill="white"/>
<path d="M233.216 87.2036C221.872 87.2036 212.686 96.4101 212.686 107.754C212.686 119.097 221.872 128.304 233.216 128.304C244.58 128.304 253.786 119.097 253.786 107.754C253.786 96.4101 244.58 87.2036 233.216 87.2036ZM233.236 124.194C224.153 124.194 216.796 116.837 216.796 107.754C216.796 98.6706 224.153 91.3136 233.236 91.3136C242.319 91.3136 249.676 98.6706 249.676 107.754C249.676 116.837 242.319 124.194 233.236 124.194ZM234.264 97.4787H231.181V109.809L241.97 116.282L243.511 113.754L234.264 108.267V97.4787Z" fill="#7020C7"/>
<defs>
<clipPath id="clip0_21_3877">
<rect width="20.1216" height="20.1216" fill="white" transform="matrix(-1 0 0 1 122 101)"/>
</clipPath>
</defs>
</svg>
