<svg width="321" height="321" viewBox="0 0 321 321" fill="none" xmlns="http://www.w3.org/2000/svg">
<rect x="153.795" y="214.483" width="31.09" height="34.1481" fill="#F23DC0"/>
<rect x="153.795" y="214.483" width="31.09" height="5.6064" fill="#A91680"/>
<rect x="75.8154" y="62.6005" width="186.54" height="153.411" rx="4.07738" fill="#F23DC0"/>
<circle cx="169.349" cy="204.051" r="8.82483" fill="#FF65D4"/>
<rect x="80.9121" y="67.1875" width="176.347" height="123.85" rx="4.07738" fill="#F0B6FF"/>
<g clip-path="url(#clip0_21_3551)">
<path d="M121.921 127.375C121.921 127.567 127.983 127.983 135.485 128.309C142.987 128.635 149.083 128.748 149.094 128.556C149.105 128.365 143.021 127.96 135.519 127.623C128.017 127.285 121.933 127.184 121.921 127.375Z" fill="white"/>
<path d="M188.245 79.0022C187.053 72.4789 185.49 65.7757 181.497 60.5008C177.504 55.2259 170.362 51.7618 164.075 53.8875L156.337 58.3863C157.936 76.4227 161.6 94.2159 167.258 111.416C167.691 113.146 168.518 114.751 169.676 116.106C172.184 118.648 176.301 132.64 179.855 132.223C184.14 131.729 190.641 137.757 192.474 133.854C193.363 131.965 191.765 108.56 191.631 106.49C191.039 97.2693 189.908 88.0911 188.245 79.0022V79.0022Z" fill="#191A1B"/>
<path d="M144.663 67.4062L168.529 59.5333C176.256 58.1386 182.127 67.4062 183.151 75.1217C184.332 83.7707 185.4 94.3655 184.871 100.923C183.747 114.093 173.894 116.477 173.894 116.477C174.667 119.723 174.929 123.07 174.67 126.397C174.052 135.395 168.259 137.644 163.524 138.015C156.045 138.814 148.24 136.441 147.385 129.018L140.862 72.4449C140.73 71.2781 141.051 70.1055 141.758 69.1682C142.466 68.2309 143.505 67.6003 144.663 67.4062Z" fill="white"/>
<path d="M174.203 103.088C174.271 103.791 173.785 105.042 172.847 105.956C167.768 103.089 165.577 104.751 165.577 104.751C163.724 102.126 163.995 98.4579 168.36 101.085C171.419 102.875 173.235 103.122 174.203 103.088Z" fill="#191A1B"/>
<path d="M172.847 105.956C171.822 106.917 170.257 107.543 168.069 106.737C167.043 106.375 166.223 105.61 165.577 104.751C165.577 104.751 167.768 103.089 172.847 105.956Z" fill="#FE9DAB"/>
<path d="M175.033 102.884C175.033 102.884 173.219 103.96 168.36 101.085C162.556 97.626 163.963 105.247 168.025 106.738C172.267 108.312 174.295 104.496 174.203 103.088" stroke="#191A1B" stroke-width="1.32153" stroke-miterlimit="10" stroke-linecap="round" stroke-linejoin="round"/>
<path d="M165.577 104.751C165.577 104.751 167.768 103.089 172.847 105.956" stroke="#191A1B" stroke-width="1.32153" stroke-miterlimit="10" stroke-linecap="round" stroke-linejoin="round"/>
<path d="M171.64 84.447C171.64 84.447 171.757 87.9104 174.03 91.7479C175.036 93.4495 173.576 96.2763 170.337 96.7912" stroke="#191A1B" stroke-width="1.13438" stroke-miterlimit="10" stroke-linecap="round" stroke-linejoin="round"/>
<path d="M160.061 88.7237C159.055 88.6944 158.29 87.8656 158.361 86.8586L158.388 85.6844C158.417 84.6778 159.246 83.9128 160.253 83.984C161.259 84.0132 162.025 84.842 161.953 85.8491L161.926 87.0233C161.896 87.9879 161.068 88.7529 160.061 88.7237Z" fill="#191A1B"/>
<path d="M177.716 89.1297C176.793 89.0994 176.07 88.3119 176.101 87.3892L176.129 86.2989C176.159 85.3762 176.946 84.6536 177.869 84.6839C178.792 84.7142 179.514 85.5016 179.484 86.4243L179.456 87.5147C179.426 88.4373 178.638 89.16 177.716 89.1297Z" fill="#191A1B"/>
<path d="M164.096 86.2412C164.096 86.2412 162.987 84.704 161.097 84.4344C159.543 84.2024 157.834 84.9786 157.593 85.862" stroke="#191A1B" stroke-width="1.30389" stroke-miterlimit="10" stroke-linecap="round" stroke-linejoin="round"/>
<path d="M176.466 86.4627C176.466 86.4627 176.449 85.1213 178.377 85.0971C179.97 85.077 180.659 86.5356 180.659 86.5356" stroke="#191A1B" stroke-width="1.30389" stroke-miterlimit="10" stroke-linecap="round" stroke-linejoin="round"/>
<path d="M166.394 78.9178C167.315 78.8224 167.762 77.7267 167.249 76.8947C166.95 76.4793 166.568 76.1068 166.02 75.9041C164.421 75.4211 159.238 76.6183 157.007 79.2456C155.025 81.6602 162.207 79.3479 166.394 78.9178Z" fill="#191A1B"/>
<path d="M177.468 79.4495C176.753 79.2489 176.53 78.2036 177.108 77.5256C177.398 77.1866 177.813 76.8879 178.273 76.7982C179.695 76.5288 182.981 77.787 183.934 80.2485C184.799 82.3756 180.874 80.2451 177.468 79.4495Z" fill="#191A1B"/>
<path opacity="0.42" d="M155.985 101.866C157.889 101.866 159.432 100.592 159.432 99.0209C159.432 97.4497 157.889 96.1761 155.985 96.1761C154.081 96.1761 152.538 97.4497 152.538 99.0209C152.538 100.592 154.081 101.866 155.985 101.866Z" fill="#F0B6FF"/>
<path opacity="0.42" d="M184.765 99.1824C184.534 101.045 184.439 102.884 184.177 104.711C182.731 104.274 181.74 103.098 181.831 101.796C181.929 100.393 183.177 99.3398 184.765 99.1824Z" fill="#F0B6FF"/>
<path d="M173.939 116.433C167.569 117.01 161.162 115.843 155.404 113.058C155.404 113.058 161.219 121.842 174.175 119.672L173.939 116.433Z" fill="#F9E0FF"/>
<path d="M170.902 62.6938C169.876 64.3292 168.627 65.8131 167.191 67.1027L160.622 73.5697C159.102 75.1411 157.483 76.6137 155.775 77.9786C154.211 79.1312 152.585 80.1975 150.905 81.1728C149.173 82.2187 148.284 84.918 146.552 85.964C146.159 86.2002 144.888 86.054 144.472 86.3577C144.562 89.2707 144.607 98.5607 144.629 102.25C144.685 108.087 146.766 123.619 146.766 123.619H141.806C137.915 123.023 132.437 131.492 130.356 128.118C128.107 124.429 130.851 108.616 130.964 105.624C131.324 96.8062 133.056 87.831 133.551 80.2505C133.599 77.1945 134.1 74.1625 135.035 71.2528C136.565 67.1926 139.703 63.9422 143.088 61.2204C146.911 57.9733 151.422 55.6387 156.281 54.3935C158.705 53.7815 161.227 53.6653 163.697 54.0518C166.167 54.4384 168.534 55.3197 170.655 56.6429C171.339 57.0143 171.861 57.628 172.117 58.3637C172.747 60.1745 171.881 61.018 170.902 62.6938ZM144.37 86.4589C144.179 86.8188 144.37 87.7186 144.37 86.4589V86.4589Z" fill="#191A1B"/>
<path d="M145.27 89.9682C145.202 89.3284 144.974 88.7162 144.605 88.1889C144.236 87.6615 143.74 87.2364 143.163 86.9532C142.585 86.67 141.945 86.538 141.302 86.5696C140.66 86.6012 140.036 86.7954 139.489 87.1339C138.218 87.9887 137.318 89.597 137.644 92.5325C138.521 100.349 146.203 97.8524 146.192 97.6274C146.181 97.4025 145.663 93.2073 145.27 89.9682Z" fill="#FFBE9D"/>
<path d="M143.47 94.939C143.47 94.939 143.335 95.0402 143.122 95.1752C142.815 95.351 142.452 95.3995 142.11 95.3101C141.568 95.0484 141.106 94.6465 140.772 94.1462C140.437 93.6459 140.243 93.0653 140.209 92.4646C140.11 91.794 140.164 91.1096 140.366 90.4627C140.42 90.217 140.53 89.9874 140.688 89.792C140.846 89.5967 141.048 89.4412 141.277 89.338C141.429 89.2793 141.596 89.2753 141.75 89.3267C141.904 89.378 142.035 89.4814 142.121 89.6191C142.256 89.8328 142.222 89.9903 142.267 90.0015C142.312 90.0128 142.413 89.8441 142.267 89.5291C142.205 89.3406 142.077 89.1808 141.907 89.0793C141.792 89.0093 141.664 88.9632 141.531 88.9439C141.397 88.9246 141.261 88.9323 141.131 88.9668C140.816 89.0639 140.532 89.2416 140.307 89.4823C140.083 89.723 139.924 90.0183 139.849 90.3389C139.58 91.0564 139.499 91.8307 139.613 92.5884C139.849 94.1629 140.816 95.5463 141.986 95.7488C142.203 95.7845 142.426 95.7718 142.638 95.7116C142.85 95.6513 143.046 95.5449 143.212 95.4001C143.47 95.1302 143.493 94.9502 143.47 94.939Z" fill="#EB996E"/>
<path d="M141.053 98.5836C141.076 98.8872 141.188 99.1771 141.375 99.4168C141.563 99.6566 141.817 99.8354 142.107 99.9307C142.396 100.026 142.706 100.034 143 99.9524C143.293 99.8713 143.556 99.705 143.755 99.4747C143.954 99.2444 144.08 98.9602 144.118 98.6582C144.156 98.3561 144.103 98.0497 143.967 97.7775C143.831 97.5053 143.617 97.2796 143.352 97.1288C143.088 96.978 142.785 96.909 142.481 96.9303C142.073 96.962 141.694 97.1534 141.427 97.4631C141.159 97.7727 141.025 98.1754 141.053 98.5836V98.5836Z" fill="#E0E0E0"/>
<path d="M152.265 67.4515C147.341 70.976 143.163 75.4407 139.972 80.588L144.201 87.7524C151.388 87.0776 152.243 86.3466 157.304 81.2066C162.365 76.0667 172.42 65.8206 172.982 58.6225C166.189 60.512 158.013 63.3463 152.265 67.4515Z" fill="#191A1B"/>
<path d="M209.817 155.403C209.817 155.403 208.411 144.156 202.968 138.476C197.524 132.797 174.76 125.767 174.76 125.767C174.76 125.767 173.826 133.809 168.372 135.755C162.591 137.813 156 137.037 151.827 132.133C149.251 128.966 147.438 125.249 146.53 121.268C146.53 121.268 119.346 123.777 114.914 131.233C110.483 138.69 104.792 167.561 104.792 167.561L130.21 172.96L128.535 196.433L191.001 196.804L192.935 176.075L211.313 178.707L209.817 155.403Z" fill="#A91680"/>
<path d="M135.215 174.602C135.289 174.232 135.319 173.855 135.305 173.478C135.305 172.758 135.305 171.712 135.305 170.43C135.305 167.843 135.305 164.277 135.193 160.307C135.08 156.337 135.001 152.805 134.889 150.185C134.889 148.891 134.788 147.857 134.732 147.126C134.744 146.746 134.698 146.367 134.597 146.001C134.521 146.371 134.491 146.748 134.507 147.126C134.507 147.857 134.507 148.891 134.507 150.185C134.507 152.76 134.507 156.326 134.619 160.307C134.732 164.289 134.81 167.809 134.923 170.43C134.923 171.723 135.024 172.769 135.08 173.489C135.069 173.865 135.115 174.24 135.215 174.602V174.602Z" fill="#191A1B"/>
<path d="M199.188 154.121C199.042 154.121 197.445 159.114 195.646 165.368C193.846 171.621 192.519 176.75 192.665 176.795C192.811 176.84 194.408 171.79 196.208 165.548C197.396 161.792 198.391 157.978 199.188 154.121V154.121Z" fill="#191A1B"/>
<path d="M117.76 129.434C117.76 129.547 118.963 129.772 120.819 130.469C125.679 132.342 129.725 135.866 132.246 140.423C133.202 142.155 133.596 143.347 133.697 143.302C133.798 143.257 133.697 142.987 133.506 142.447C133.275 141.673 132.978 140.921 132.617 140.198C131.442 137.816 129.802 135.693 127.792 133.956C125.793 132.216 123.469 130.89 120.954 130.053C120.2 129.793 119.425 129.601 118.637 129.479C118.349 129.417 118.053 129.402 117.76 129.434V129.434Z" fill="#191A1B"/>
<path d="M203.373 140.748C202.797 141.85 202.395 143.034 202.18 144.258C201.787 145.433 201.578 146.662 201.562 147.902C202.546 145.63 203.157 143.215 203.373 140.748V140.748Z" fill="#191A1B"/>
<path d="M134.619 146.102C134.619 146.282 149.038 148.227 166.864 150.443C184.691 152.659 199.166 154.301 199.188 154.121C199.211 153.941 184.781 151.984 166.943 149.768C149.105 147.553 134.641 145.911 134.619 146.102Z" fill="#F23DC0"/>
<path d="M110.337 145.259C110.337 145.439 115.6 146.912 122.202 148.543C128.804 150.174 134.18 151.355 134.225 151.175C134.27 150.995 128.962 149.521 122.36 147.879C115.758 146.237 110.381 145.067 110.337 145.259Z" fill="#F23DC0"/>
<path d="M106.22 160.982C106.22 161.162 112.395 162.646 120.111 164.289C127.826 165.931 134.102 167.123 134.136 166.943C134.169 166.763 127.961 165.278 120.245 163.625C112.53 161.972 106.265 160.791 106.22 160.982Z" fill="#F23DC0"/>
<path d="M174.94 131.199C174.94 131.379 180.878 133.066 188.301 134.967C195.724 136.868 201.798 138.262 201.798 138.082C201.798 137.902 195.871 136.215 188.448 134.315C181.024 132.414 174.985 131.053 174.94 131.199Z" fill="#F23DC0"/>
<path d="M135.631 169.878C135.631 170.069 148.554 171.003 164.525 171.925C180.496 172.847 193.396 173.488 193.396 173.308C193.396 173.128 180.474 172.184 164.503 171.25C148.532 170.317 135.643 169.687 135.631 169.878Z" fill="#F23DC0"/>
<path d="M207.815 161.814C207.815 161.623 205.566 161.308 202.754 160.948C201.064 160.622 199.345 160.475 197.625 160.51C197.625 160.701 199.874 161.263 202.664 161.634C205.453 162.005 207.804 162.005 207.815 161.814Z" fill="#F23DC0"/>
<path d="M192.001 192.541C193.631 190.823 195.135 188.988 196.5 187.053C197.586 185.462 198.553 183.793 199.39 182.059C200.11 180.574 200.594 179.337 200.931 178.471C201.071 178.012 201.256 177.568 201.482 177.144C201.428 177.625 201.314 178.097 201.145 178.55C200.758 179.806 200.296 181.038 199.762 182.239C198.972 184.022 198.031 185.734 196.95 187.356C195.602 189.348 194.098 191.228 192.451 192.98C191.402 194.036 190.487 195.219 189.729 196.5H189.043C189.858 195.061 190.852 193.731 192.001 192.541V192.541Z" fill="#EB996E"/>
<path d="M192.896 176.333L201.738 177.478L210.088 155.888L223.603 161.352C223.603 161.352 216.158 186.55 213.295 196.801H185.806L192.896 176.333Z" fill="white"/>
<path d="M132.697 173.414L134.912 196.636H112.786C111.897 193.245 108.598 168.304 108.598 168.304L132.697 173.414Z" fill="white"/>
<ellipse cx="2.14788" cy="1.51501" rx="2.14788" ry="1.51501" transform="matrix(0.995693 0.092716 -0.0745085 0.99722 155.724 100.604)" fill="#F23DC0"/>
<path d="M154.753 101.101C151.122 100.716 149.684 98.3235 148.609 97.1642L147.339 98.8215L149.7 100.864C152.585 103.36 157.825 103.069 157.749 102.314C157.713 101.959 156.882 101.327 154.753 101.101Z" fill="#F23DC0"/>
<path d="M140.433 85.6218C140.433 85.6218 141.489 57.8268 160.839 53.9564L163.654 54.3085C163.654 54.3085 144.744 60.206 145.007 86.6774" fill="#F23DC0"/>
<path d="M142.826 102.036C148.182 101.364 151.935 95.8826 151.206 89.7931C150.478 83.7035 145.545 79.3116 140.189 79.9836C134.832 80.6555 131.08 86.1368 131.808 92.2263C132.536 98.3159 137.469 102.708 142.826 102.036Z" fill="#F23DC0"/>
<path d="M140.952 79.8875C141.059 79.8784 141.166 79.89 141.27 79.9216C141.574 79.9747 141.874 80.0499 142.169 80.1468C143.247 80.4876 144.25 81.0565 145.117 81.819C146.389 82.9868 147.362 84.4755 147.946 86.1454C148.738 88.1596 149.001 90.3591 148.707 92.5093C148.419 94.6575 147.593 96.6797 146.315 98.3658C145.278 99.7593 143.895 100.818 142.319 101.423C141.263 101.842 140.117 101.953 139.002 101.742C138.704 101.683 138.411 101.589 138.132 101.462C137.938 101.375 137.844 101.318 137.851 101.303C137.858 101.288 138.269 101.445 139.032 101.553C140.112 101.684 141.203 101.526 142.205 101.095C143.696 100.468 144.998 99.4264 145.975 98.0796C147.185 96.4452 147.967 94.5002 148.245 92.4376C148.517 90.3674 148.264 88.2529 147.512 86.311C146.969 84.6975 146.062 83.2467 144.87 82.0862C144.046 81.325 143.098 80.7298 142.073 80.3302C141.692 80.2045 141.318 80.0567 140.952 79.8875V79.8875Z" fill="black"/>
<path d="M150.603 95.6699C150.474 95.6861 150.338 94.8743 149.633 94.3793C148.929 93.8843 148.165 94.068 148.137 93.9373C148.108 93.8067 148.278 93.7344 148.611 93.6695C149.055 93.5974 149.509 93.7041 149.886 93.9688C150.262 94.2335 150.533 94.6369 150.644 95.0999C150.721 95.4514 150.66 95.6675 150.603 95.6699Z" fill="black"/>
<path d="M149.797 92.3305C149.77 92.4636 149.469 92.5059 149.124 92.5399C148.78 92.5739 148.475 92.5843 148.421 92.4569C148.366 92.3294 148.652 92.0899 149.079 92.0502C149.506 92.0105 149.826 92.202 149.797 92.3305Z" fill="black"/>
<path d="M148.703 83.2214C148.68 83.3585 148.197 83.3682 147.704 83.6615C147.212 83.9548 146.915 84.3578 146.808 84.2972C146.7 84.2366 146.828 83.5908 147.482 83.2263C148.137 82.8618 148.749 83.0952 148.703 83.2214Z" fill="black"/>
<path d="M211.459 148.755C212.615 152.454 209.358 154.932 209.745 157.044C213.616 159.6 221.967 163.757 222.411 163.025C222.966 162.11 226.092 154.945 226.924 153.573C227.757 152.201 239.122 142.185 236.289 127.089C235.435 122.539 228.682 120.621 225.929 125.027L221.882 131.8C221.882 131.8 219.293 138.308 217.553 137.566C215.814 136.824 218.303 132.626 217.453 129.398C216.582 126.087 214.594 126.614 214.407 127.439C213.938 129.501 211.87 133.974 211.484 139.943C211.484 139.943 210.484 145.631 211.459 148.755Z" fill="white"/>
<path d="M197.564 103.122H197.064V102.622V93.2245C197.064 90.553 199.23 88.3873 201.901 88.3873H229.37C232.042 88.3873 234.208 90.553 234.208 93.2245V98.2846C234.208 100.956 232.042 103.122 229.37 103.122H197.564Z" fill="white" stroke="#F23DC0"/>
<circle cx="2.444" cy="2.444" r="2.444" transform="matrix(-1 0 0 1 227.855 93.3107)" fill="#F23DC0"/>
<circle cx="2.444" cy="2.444" r="2.444" transform="matrix(-1 0 0 1 218.08 93.3107)" fill="#F23DC0"/>
<circle cx="2.444" cy="2.444" r="2.444" transform="matrix(-1 0 0 1 208.304 93.3107)" fill="#F23DC0"/>
</g>
<path d="M5.47825 166.981L23.7388 253.377L152.932 250.521C146.845 220.929 134.9 163.649 134.443 162.221C133.986 160.793 133.758 159.841 130.563 159.841C127.367 159.841 13.8781 159.746 9.13035 160.317C4.38262 160.889 4.71739 164.998 5.47825 166.981Z" fill="#7520C7"/>
<path d="M11.4131 164.839L29.4453 251.473L149.965 250.759L149.959 250.73C144.022 222.002 132.161 164.601 131.932 163.411C131.704 162.221 130.563 161.983 129.878 161.983H13.0109C11.0022 161.983 11.1849 163.411 11.4131 164.839Z" fill="#D2AFFF"/>
<path d="M112.553 228.175C112.288 228.365 111.986 228.554 111.721 228.743C111.418 228.932 111.153 229.121 110.851 229.273C110.586 229.424 110.359 229.575 110.094 229.727C110.056 229.764 110.018 229.764 109.98 229.802C109.11 230.332 108.202 230.824 107.294 231.278C107.029 231.429 106.727 231.58 106.462 231.694C106.462 231.694 106.424 231.732 106.386 231.732C106.083 231.883 105.781 232.034 105.478 232.186C104.873 232.488 104.23 232.753 103.624 233.018C103.322 233.169 102.981 233.283 102.678 233.396C102.376 233.51 102.035 233.661 101.733 233.775C101.43 233.888 101.089 234.04 100.787 234.153C100.787 234.153 100.787 234.153 100.749 234.153C100.446 234.267 100.106 234.38 99.8031 234.494C99.1221 234.721 98.4032 234.948 97.7222 235.175C97.4952 235.25 97.2304 235.326 97.0034 235.402C96.2845 235.629 95.5657 235.818 94.8468 235.969C94.582 236.045 94.3172 236.083 94.0145 236.158C93.3335 236.31 92.6146 236.461 91.9336 236.612C91.7823 236.65 91.6688 236.65 91.5175 236.688C91.2904 236.726 91.0256 236.764 90.7986 236.801C90.4581 236.839 90.1554 236.915 89.8149 236.953C89.6636 236.991 89.5123 236.991 89.3609 237.028C89.1718 237.066 88.9447 237.104 88.7177 237.104C88.1124 237.18 87.4692 237.255 86.8639 237.331C86.6747 237.369 86.4477 237.369 86.2585 237.407H86.2207C85.9559 237.445 85.691 237.445 85.4262 237.482C85.1614 237.52 84.8965 237.52 84.6317 237.52C84.4804 237.52 84.2912 237.558 84.1399 237.558C83.8372 237.558 83.5723 237.596 83.3075 237.596C82.9292 237.596 82.5887 237.634 82.2103 237.634C81.832 237.634 81.4915 237.634 81.1131 237.634C80.8483 237.634 80.5835 237.634 80.3186 237.634C64.3906 237.407 50.0137 230.635 39.7986 219.89C39.7986 219.89 39.7986 219.852 39.7607 219.852C40.9336 217.544 45.2845 213.382 49.8245 209.939C55.5753 205.589 63.7096 202.902 63.7096 202.902C63.7096 202.902 69.0441 202.032 88.8312 206.156C103.927 209.334 110.359 222.235 112.553 228.175Z" fill="white"/>
<path d="M93.0308 216.636C92.2363 220.533 87.0909 222.841 78.4269 219.36C67.7956 215.047 63.7096 202.902 63.7096 202.902C63.1421 194.2 61.8179 186.747 61.8179 186.747C74.1139 185.688 88.6421 200.065 88.6421 200.065L90.3068 207.177C90.4581 207.783 90.7608 208.313 91.2148 208.691C92.0093 210.053 93.5605 214.139 93.0308 216.636Z" fill="white"/>
<path d="M91.2147 208.729C83.9884 208.35 78.6538 207.291 72.9409 197.038C77.7837 201.313 83.4966 202.94 89.5121 203.697L90.3067 207.177C90.458 207.821 90.7607 208.35 91.2147 208.729Z" fill="#F3E0FF"/>
<path d="M106.159 163.139C106.84 166.317 107.18 168.89 105.327 177.364C103.473 185.839 107.029 194.314 98.1003 202.07C92.0847 207.291 81.5669 208.275 73.1678 202.562C70.3303 200.632 67.7197 197.946 65.601 194.427C63.9364 191.666 62.0068 189.055 59.8503 186.672C56.8614 183.418 53.2672 176.873 55.0454 165.295C57.9208 146.454 76.5729 144.298 87.5825 146.378C98.5922 148.459 104.305 154.74 106.159 163.139Z" fill="white"/>
<path d="M69.9521 177.932C69.9521 177.932 68.7792 172.257 63.2555 172.938C58.4884 173.543 56.8237 184.969 67.6442 188.147" fill="white"/>
<path d="M67.3037 182.964C67.3037 182.964 65.9417 182.094 66.093 180.58C66.32 178.802 66.093 177.705 65.2607 177.364C63.1798 176.494 62.7636 178.916 62.8393 179.218" stroke="#191A1B" stroke-width="1.1768" stroke-miterlimit="10" stroke-linecap="round" stroke-linejoin="round"/>
<path d="M96.1708 186.634C96.1708 186.634 97.6085 186.709 98.9705 185.083C99.7272 184.175 100.37 183.04 99.9542 182.699C99.538 182.321 92.6901 183.38 92.2361 184.288C91.7821 185.196 94.4305 186.634 96.1708 186.634Z" fill="#F3E0FF"/>
<path d="M97.3058 173.922C97.3058 173.922 97.3815 177.516 99.6894 181.526C100.711 183.304 99.1597 186.218 95.7925 186.709" stroke="#191A1B" stroke-width="1.1768" stroke-miterlimit="10" stroke-linecap="round" stroke-linejoin="round"/>
<path opacity="0.42" d="M76.7997 188.563C78.9519 188.563 80.6966 187.123 80.6966 185.347C80.6966 183.571 78.9519 182.131 76.7997 182.131C74.6475 182.131 72.9028 183.571 72.9028 185.347C72.9028 187.123 74.6475 188.563 76.7997 188.563Z" fill="#F3E0FF"/>
<path opacity="0.42" d="M104.721 182.207C104.608 184.326 104.645 186.407 104.494 188.488C102.829 188.109 101.619 186.861 101.619 185.385C101.619 183.796 102.943 182.51 104.721 182.207Z" fill="#F3E0FF"/>
<path d="M56.9355 202.858C56.9355 202.858 62.4849 200.653 63.5111 200.577L63.5871 201.451C63.5871 201.451 59.1781 203.352 58.912 203.656C58.684 203.922 56.9355 202.858 56.9355 202.858Z" fill="#7E5D6D"/>
<path d="M125.39 252.155H29.3032C29.3032 252.155 29.8734 234.519 35.6507 221.938C40.0218 212.436 50.5123 206.164 58.1521 203.428C60.3186 202.668 61.991 201.831 63.5493 201.413C63.5493 201.603 63.6634 203.01 63.6634 203.162C63.6634 203.162 69.6688 209.053 83.2 209.775C89.4715 210.117 90.0796 206.202 90.0796 206.202C90.8018 206.05 91.486 205.86 92.1701 205.632C92.3982 205.556 93.9946 204.91 94.1846 204.834C99.0878 206.126 105.093 209.775 113.797 217.073C123.642 225.397 125.39 252.155 125.39 252.155Z" fill="#602899"/>
<mask id="mask0_21_3551" style="mask-type:alpha" maskUnits="userSpaceOnUse" x="29" y="201" width="97" height="52">
<path d="M125.39 252.155H29.3027C29.3027 252.155 29.8729 234.519 35.6502 221.938C40.0213 212.436 50.5118 206.164 58.1516 203.428C60.3181 202.668 61.9905 201.831 63.5489 201.413C63.5489 201.603 63.6629 203.01 63.6629 203.162C63.6629 203.162 69.6683 209.053 83.1995 209.775C89.471 210.117 90.0792 206.202 90.0792 206.202C90.8013 206.05 91.4855 205.86 92.1697 205.632C92.3977 205.556 93.9941 204.91 94.1841 204.834C99.0873 206.126 105.093 209.775 113.797 217.073C123.641 225.397 125.39 252.155 125.39 252.155Z" fill="#423232"/>
</mask>
<g mask="url(#mask0_21_3551)">
<path d="M82.2622 219.307L84.0976 252.069C84.0976 252.069 93.3539 258.376 93.3539 258.201C93.3539 258.025 97.7339 250.375 97.7339 250.375L88.0146 218.431C88.0146 218.431 87.1386 219.336 82.2622 219.307Z" fill="#AF5CFF"/>
<path d="M83.8951 210.392C83.8951 210.392 78.8487 215.144 78.1856 216.397C77.5226 217.649 81.0219 219.638 81.0219 219.638C81.0219 219.638 86.6577 220.817 89.1994 218.533C89.1994 218.533 90.636 216.949 90.3413 215.439C90.0834 213.965 83.8951 210.392 83.8951 210.392Z" fill="#AF5CFF"/>
</g>
<path d="M48.1181 252.155L46.4077 238.092" stroke="#8F7C7C" stroke-width="1.14027" stroke-miterlimit="10" stroke-linecap="round" stroke-linejoin="round"/>
<path d="M114.483 233.265C114.483 233.265 113.342 236.04 113.684 238.814C114.026 241.589 115.015 245.656 113.608 252.155" stroke="#8F7C7C" stroke-width="1.14027" stroke-miterlimit="10" stroke-linecap="round" stroke-linejoin="round"/>
<path d="M56.9362 202.858C57.6584 202.63 58.9127 202.858 59.2928 203.504C60.7751 205.937 64.348 213.044 65.8303 227.146C67.0086 238.168 84.0456 247.833 84.0456 247.833L28.3154 256.261C28.3154 256.261 29.4177 237.522 32.6485 224.941C35.8032 212.74 44.0892 207.267 56.9362 202.858Z" fill="white"/>
<path d="M93.5547 204.249C93.5547 204.249 103.513 227.847 100.092 257.342L127.231 255.828C127.231 255.828 127.117 232.414 121.415 219.681C115.714 206.986 95.7592 203.261 95.7592 203.261C95.7592 203.261 94.5049 203.869 93.5547 204.249Z" fill="white"/>
<path d="M95.1349 205.176L94.2227 204.91C94.2227 204.91 95.553 204.264 96.1231 203.884L96.4652 203.694C96.4652 203.694 98.2896 204.53 98.9358 204.834C99.5819 205.138 96.6932 206.544 96.6932 206.544C96.6932 206.544 95.2489 205.176 95.1349 205.176Z" fill="#7E5D6D"/>
<path d="M60.8862 220.074C60.8862 220.074 57.1169 225.26 58.8517 228.804C60.5865 232.349 83.8065 250.315 83.8065 250.315C83.8065 250.315 81.2983 237.113 74.3761 223.573C74.3761 223.573 72.225 222.1 68.8511 221.045C66.6223 220.401 63.8655 219.858 60.8862 220.074Z" fill="#F9E0FF"/>
<path d="M112.055 226.162C112.483 223.762 107.344 219.195 107.344 219.195C105.043 219.582 103.34 220.419 102.081 221.385C99.2788 223.474 98.6317 226.116 98.6317 226.116L98.7049 226.813C100.049 238.789 97.5169 253.878 97.5169 253.878C97.5169 253.878 111.627 228.561 112.055 226.162Z" fill="#F9E0FF"/>
<path d="M74.3413 223.585C74.3413 223.585 70.9135 221.785 67.2528 220.949C59.1489 219.102 48.679 220.555 47.4761 217.391C46.1738 213.819 55.5418 202.218 62.58 196.958C62.5923 196.994 62.6046 197.03 62.6169 197.066C62.6292 197.102 62.6415 197.138 62.6661 197.21C62.6907 197.282 62.7153 197.354 62.7759 197.413C62.8128 197.521 62.8857 197.617 62.9226 197.725C62.9472 197.797 63.0201 197.892 63.0201 197.892C64.01 199.964 63.6397 201.474 64.2147 202.672C64.7897 203.87 66.1159 204.827 66.1159 204.827C66.1159 204.827 64.6461 205.933 68.6505 213.762C69.6632 215.665 72.0917 218.771 74.3413 223.585Z" fill="#F9E0FF"/>
<path d="M98.6544 225.928C98.6544 225.928 97.2492 215.82 96.3622 212.543C95.4708 209.304 93.532 205.523 93.4403 205.322C94.9909 204.811 96.4121 204.094 97.6995 203.208C98.987 202.323 100.048 201.411 100.958 200.483C104.932 203.195 116.249 211.608 116.45 215.189C116.693 219.081 102.03 217.171 98.6544 225.928Z" fill="#F9E0FF"/>
<path d="M91.9131 218.26C91.2669 216.018 90.2407 214.421 89.1384 213.281C86.7439 210.734 84.0452 210.392 84.0452 210.392" stroke="#191A1B" stroke-width="1.14027" stroke-miterlimit="10" stroke-linecap="round" stroke-linejoin="round"/>
<path d="M91.9131 218.261C94.1487 212.77 96.5255 213.958 95.9321 210.987C94.1485 208.015 92.9596 205.638 92.9596 205.638" stroke="#191A1B" stroke-width="1.14027" stroke-miterlimit="10" stroke-linecap="round" stroke-linejoin="round"/>
<path d="M76.9144 219.307C75.7258 218.713 69.1886 214.553 68 211.581" stroke="#191A1B" stroke-width="1.14027" stroke-miterlimit="10" stroke-linecap="round" stroke-linejoin="round"/>
<path d="M76.7299 219.2C77.0845 216.894 77.8986 215.179 78.8463 213.908C80.8962 211.076 83.5291 210.393 83.5291 210.393" stroke="#191A1B" stroke-width="1.14027" stroke-miterlimit="10" stroke-linecap="round" stroke-linejoin="round"/>
<circle cx="98.0643" cy="222.034" r="3.60772" fill="white" stroke="#191A1B" stroke-width="1.80386"/>
<path d="M96.5259 204.45C97.7145 206.827 98.4346 208.519 99.4973 212.77C100.092 215.147 99.4973 219.307 98.3088 221.09" stroke="#191A1B" stroke-width="1.32842" stroke-linecap="round"/>
<path d="M63.1987 199.429C60.8214 207.749 63.5532 213.45 66.2166 216.93C68.88 220.409 69.3639 221.496 69.1881 221.09" stroke="#191A1B" stroke-width="1.32842" stroke-linecap="round"/>
<path d="M75.9056 233.44C73.8865 231.634 66.0057 225.36 67.7633 222.784C69.3168 220.508 69.7018 219.924 71.5824 219.945C73.4631 219.965 80.7372 227.619 80.7372 227.619" stroke="#191A1B" stroke-width="1.52881" stroke-linecap="round"/>
<path d="M137.568 211.763C136.817 214.341 137.394 218.106 137.823 219.814C141.127 221.702 148.315 224.841 148.639 224.219C149.045 223.44 151.015 217.292 151.624 216.125C152.233 214.958 164.043 207.327 160.925 195.119C159.986 191.44 155.526 190.916 152.672 194.252L148.613 199.487C148.613 199.487 144.57 204.033 143.107 203.517C141.644 203.001 140.395 199.15 139.393 196.878C138.26 194.308 135.41 194.553 135.3 195.238C135.025 196.951 137.999 203.822 138.709 208.151C138.709 208.151 138.319 209.185 137.568 211.763Z" fill="white"/>
<path d="M149.664 220.802C149.302 220.306 147.797 217.981 141.892 214.408C141.892 214.408 137.644 212.307 136.654 212.808C135.56 213.362 134.991 215.837 134.991 215.837L134.024 218.757L149.045 223.668C149.403 222.919 150.027 221.299 149.664 220.802Z" fill="#191A1B"/>
<path d="M133.9 217.451L131.33 223.769L147.914 230.116L150.422 223.166C150.517 223.05 149.488 222.109 144.612 219.269C139.736 216.43 135.439 216.874 133.9 217.451Z" fill="#602899"/>
<path d="M131.32 222.352L119.443 247.476L145.771 248.303L149.325 228.513C149.595 228.154 149.879 226.964 145.424 224.518C140.969 222.071 134.165 222.054 131.32 222.352Z" fill="white"/>
<path d="M83.879 177.959C82.9709 177.921 82.2899 177.165 82.3656 176.257L82.4034 175.197C82.4413 174.289 83.1979 173.608 84.106 173.684C85.014 173.722 85.695 174.479 85.6193 175.387L85.5815 176.446C85.5437 177.316 84.787 177.997 83.879 177.959Z" fill="#191A1B"/>
<path d="M99.8074 178.527C98.9751 178.489 98.3319 177.77 98.3698 176.938L98.4076 175.954C98.4454 175.122 99.1643 174.479 99.9966 174.516C100.829 174.554 101.472 175.273 101.434 176.105L101.396 177.089C101.359 177.921 100.64 178.565 99.8074 178.527Z" fill="#191A1B"/>
<path d="M87.5488 175.765C87.5488 175.765 86.5651 174.365 84.8626 174.1C83.4628 173.873 81.9116 174.554 81.6846 175.349" stroke="#191A1B" stroke-width="1.1768" stroke-miterlimit="10" stroke-linecap="round" stroke-linejoin="round"/>
<path d="M98.71 176.105C98.71 176.105 98.71 174.895 100.45 174.895C101.888 174.895 102.493 176.219 102.493 176.219" stroke="#191A1B" stroke-width="1.1768" stroke-miterlimit="10" stroke-linecap="round" stroke-linejoin="round"/>
<path d="M89.7056 169.182C90.538 169.106 90.9541 168.122 90.5001 167.366C90.2353 166.987 89.8948 166.647 89.4029 166.458C87.9652 166.004 83.2739 167.025 81.2308 169.371C79.4148 171.527 85.9222 169.522 89.7056 169.182Z" fill="#191A1B"/>
<path d="M99.6937 169.787C99.0505 169.598 98.8613 168.652 99.391 168.047C99.6559 167.744 100.034 167.479 100.45 167.404C101.737 167.177 104.688 168.349 105.52 170.582C106.277 172.511 102.758 170.544 99.6937 169.787Z" fill="#191A1B"/>
<path d="M88.0622 191.65C88.0622 191.65 89.2513 193.759 95.9564 193.182" stroke="#191A1B" stroke-width="1.1768" stroke-miterlimit="10" stroke-linecap="round" stroke-linejoin="round"/>
<path d="M106.579 162.655C106.457 162.045 106.294 161.394 106.091 160.783C105.887 160.173 105.399 159.644 104.748 159.522C102.631 159.155 100.597 160.213 97.6663 159.806C88.3467 158.545 82.12 154.597 73.3701 158.016C64.3353 161.516 69.4632 176.085 67.5504 178.324C67.2248 177.184 65.6376 172.545 60.4284 173.196C55.504 173.806 53.632 185.201 63.8063 189.108C63.7249 191.347 59.6958 193.463 56.4401 189.556C53.1843 185.649 46.6727 175.516 51.068 160.702C55.4633 145.888 75.3643 138.155 93.8815 145.684C97.0559 146.987 99.0907 149.795 101.736 150.731C107.149 152.725 107.189 165.585 106.579 162.655Z" fill="#191A1B"/>
<path d="M63.8473 189.149C63.8473 189.149 63.7659 192.486 60.3473 198.672C60.3473 198.672 59.5334 195.254 57.7427 192.12C55.9927 188.986 52.5335 182.434 50.4172 175.882C48.3009 169.33 52.2079 177.469 54.202 180.196C56.1555 182.882 57.4578 189.556 63.8473 189.149Z" fill="#191A1B"/>
<path d="M87.2886 153.01C88.7944 153.946 90.4223 154.557 92.1723 154.679C94.3292 154.841 97.5443 156.307 102.265 160.58C107.841 165.626 105.073 132.621 70.3586 140.435C58.475 143.08 50.01 153.58 48.5449 165.341C48.4635 166.155 48.3821 166.969 48.3414 167.783C48.0158 178.609 56.7657 188.05 56.7657 188.05C56.7657 188.05 53.1844 172.992 61.3645 166.766C68.7714 161.109 73.9399 154.475 80.4108 154.475C84.3177 154.434 86.3933 152.481 87.2886 153.01Z" fill="#191A1B"/>
<path d="M88.4282 144.26C88.4282 144.26 100.759 167.742 106.864 167.539C112.969 167.335 119.317 148.208 106.376 140.964C97.3409 135.876 88.4282 144.26 88.4282 144.26Z" fill="#191A1B"/>
<path d="M93.9224 150.894C93.9224 150.894 104.015 161.679 99.2537 164.772C96.527 166.521 93.9224 161.231 93.9224 161.231C93.9224 161.231 90.7073 166.481 85.5795 163.835C80.4516 161.231 83.8702 153.702 83.8702 153.702C83.8702 153.702 90.8294 146.702 93.9224 150.894Z" fill="#191A1B"/>
<path d="M84.8876 154.557C84.8876 154.557 83.0562 165.667 74.4284 167.295C65.8006 168.923 64.7832 160.051 64.7832 160.051C64.7832 160.051 77.5621 146.01 84.8876 154.557Z" fill="#191A1B"/>
<path d="M106.417 174.295C106.417 174.295 111.504 171.405 111.219 164.202C110.934 156.998 107.149 161.882 107.149 161.882C107.149 161.882 107.556 168.19 106.417 174.295Z" fill="#191A1B"/>
<path d="M89.727 181.868H81.0172C78.7369 181.868 76.9053 180.037 76.9053 177.756V174.205C76.9053 171.925 78.7369 170.093 81.0172 170.093H89.727C92.0072 170.093 93.8389 171.925 93.8389 174.205V177.756C93.8389 180.037 91.9698 181.868 89.727 181.868Z" stroke="#191A1B" stroke-width="1.12143" stroke-miterlimit="10" stroke-linecap="round" stroke-linejoin="round"/>
<path d="M104.754 170.093H100.455C98.9601 170.093 97.7266 171.327 97.7266 172.822V176.074C98.2499 177.943 98.9975 179.738 100.119 181.345C100.231 181.345 100.343 181.382 100.455 181.382H104.754C106.249 181.382 107.483 180.149 107.483 178.654V172.822C107.52 171.29 106.287 170.093 104.754 170.093Z" stroke="#191A1B" stroke-width="1.12143" stroke-miterlimit="10" stroke-linecap="round" stroke-linejoin="round"/>
<path d="M93.8389 173.495C95.1098 173.345 96.7172 173.233 98.0629 173.383" stroke="#191A1B" stroke-width="1.12143" stroke-miterlimit="10" stroke-linecap="round" stroke-linejoin="round"/>
<path d="M76.9053 173.757L68.2329 174.056" stroke="#191A1B" stroke-width="1.12143" stroke-miterlimit="10" stroke-linecap="round" stroke-linejoin="round"/>
<path d="M21.0098 250.515C21.0098 248.807 22.395 247.421 24.1038 247.421H117.334V253.609H24.1038C22.395 253.609 21.0098 252.224 21.0098 250.515V250.515Z" fill="#7520C7"/>
<path d="M213.658 250.515C213.658 248.806 212.272 247.421 210.564 247.421H117.334V253.609H210.564C212.272 253.609 213.658 252.224 213.658 250.515V250.515Z" fill="#AF5CFF"/>
<path d="M245.04 124.243L250.874 120.619L308.855 125.635L311.51 130.495L282.315 244.705L276.238 248.57L217.285 244.037L216.086 238.938L245.04 124.243Z" fill="#D2AFFF"/>
<mask id="mask1_21_3551" style="mask-type:alpha" maskUnits="userSpaceOnUse" x="216" y="120" width="96" height="129">
<path d="M245.04 124.243L250.874 120.619L308.855 125.635L311.51 130.495L282.315 244.705L276.238 248.57L217.285 244.037L216.086 238.938L245.04 124.243Z" fill="#D2AFFF"/>
</mask>
<g mask="url(#mask1_21_3551)">
<g clip-path="url(#clip1_21_3551)">
<path d="M234.251 209.162C233.937 212.349 236.989 213.808 237.03 215.582C234.326 218.301 228.266 223.066 227.784 222.549C227.181 221.902 223.448 216.627 222.544 215.657C221.64 214.686 210.761 208.488 210.52 195.796C210.447 191.971 215.59 189.284 218.557 192.388L222.97 197.19C222.97 197.19 226.158 202.023 227.441 201.13C228.724 200.237 226.005 197.258 226.151 194.503C226.3 191.677 227.997 191.77 228.287 192.406C229.013 193.996 231.438 197.268 232.751 202.034C232.751 202.034 234.516 206.47 234.251 209.162Z" fill="white"/>
<path d="M249.18 212.369C249.405 212.477 249.658 212.579 249.883 212.686C250.137 212.789 250.362 212.896 250.61 212.97C250.83 213.049 251.022 213.133 251.242 213.211C251.275 213.235 251.304 213.23 251.337 213.253C252.064 213.537 252.815 213.787 253.56 214.008C253.78 214.087 254.029 214.161 254.244 214.211C254.244 214.211 254.277 214.235 254.306 214.23C254.554 214.304 254.803 214.377 255.051 214.451C255.548 214.599 256.068 214.713 256.56 214.832C256.809 214.906 257.081 214.946 257.324 214.991C257.568 215.036 257.845 215.105 258.088 215.151C258.332 215.196 258.609 215.265 258.852 215.31C258.852 215.31 258.852 215.31 258.881 215.305C259.124 215.35 259.396 215.39 259.639 215.436C260.183 215.516 260.756 215.591 261.3 215.672C261.481 215.699 261.691 215.72 261.872 215.747C262.445 215.823 263.012 215.87 263.575 215.888C263.784 215.91 263.989 215.903 264.228 215.92C264.761 215.943 265.324 215.961 265.858 215.985C265.977 215.993 266.063 215.978 266.182 215.986C266.358 215.985 266.563 215.978 266.739 215.976C267.001 215.959 267.239 215.976 267.501 215.959C267.62 215.968 267.735 215.947 267.854 215.956C268.001 215.959 268.178 215.957 268.349 215.927C268.816 215.903 269.311 215.875 269.778 215.851C269.925 215.855 270.097 215.824 270.244 215.828L270.273 215.823C270.478 215.816 270.677 215.78 270.882 215.774C271.087 215.767 271.287 215.732 271.487 215.696C271.601 215.676 271.748 215.679 271.863 215.659C272.091 215.619 272.296 215.612 272.495 215.577C272.781 215.526 273.043 215.51 273.328 215.459C273.613 215.409 273.87 215.363 274.156 215.313C274.355 215.278 274.555 215.242 274.755 215.207C286.739 212.913 296.681 205.888 302.954 196.422C302.954 196.422 302.949 196.393 302.977 196.388C301.785 194.804 297.949 192.244 294.065 190.253C289.147 187.737 282.654 186.795 282.654 186.795C282.654 186.795 278.514 186.85 264.138 192.598C253.175 197.007 250.043 207.596 249.18 212.369Z" fill="white"/>
<path d="M262.368 201.063C263.487 203.896 267.676 204.951 273.747 201.171C281.191 196.5 282.654 186.795 282.654 186.795C281.922 180.156 281.928 174.357 281.928 174.357C272.512 175.197 263.47 187.978 263.47 187.978L263.162 193.565C263.129 194.042 262.971 194.482 262.679 194.828C262.261 195.961 261.636 199.25 262.368 201.063Z" fill="white"/>
<path d="M262.684 194.856C268.084 193.608 271.967 192.097 274.91 183.602C271.827 187.472 267.734 189.461 263.298 190.834L263.162 193.565C263.134 194.07 262.976 194.51 262.684 194.856Z" fill="#F0B6FF"/>
<path d="M245.335 162.46C245.245 164.948 245.331 166.934 247.859 173.079C250.387 179.225 248.834 186.091 256.603 190.751C261.836 193.888 269.901 193.228 275.475 187.799C277.358 185.965 278.969 183.591 280.098 180.655C280.985 178.35 282.093 176.123 283.402 174.038C285.223 171.185 287.061 165.769 284.177 157.274C279.497 143.445 265.14 144.304 257.113 147.342C249.086 150.379 245.614 155.877 245.335 162.46Z" fill="white"/>
<path d="M263.09 180.795C263.09 180.795 262.249 183.036 257.4 183.47" stroke="#191A1B" stroke-width="0.851172" stroke-miterlimit="10" stroke-linecap="round" stroke-linejoin="round"/>
<path d="M274.617 168.793C274.617 168.793 274.745 164.356 279.003 164.133C282.679 163.954 285.458 172.351 277.719 176.19" fill="white"/>
<path d="M277.285 172.235C277.285 172.235 278.197 171.397 277.881 170.275C277.473 168.964 277.498 168.107 278.08 167.739C279.534 166.805 280.17 168.576 280.154 168.814" stroke="#191A1B" stroke-width="0.901407" stroke-miterlimit="10" stroke-linecap="round" stroke-linejoin="round"/>
<path d="M256.001 178.851C256.001 178.851 254.926 179.1 253.682 178.054C252.99 177.47 252.354 176.7 252.623 176.387C252.886 176.046 258.193 175.933 258.656 176.557C259.12 177.181 257.314 178.619 256.001 178.851Z" fill="#F0B6FF"/>
<path d="M253.45 169.413C253.45 169.413 253.872 172.134 252.666 175.467C252.132 176.944 253.69 178.935 256.296 178.857" stroke="#191A1B" stroke-width="0.901407" stroke-miterlimit="10" stroke-linecap="round" stroke-linejoin="round"/>
<path opacity="0.42" d="M270.869 177.724C269.246 178.011 267.738 177.158 267.501 175.818C267.264 174.478 268.388 173.16 270.012 172.873C271.635 172.586 273.143 173.44 273.38 174.779C273.617 176.119 272.492 177.438 270.869 177.724Z" fill="#F0B6FF"/>
<path opacity="0.42" d="M248.961 176.652C249.329 178.235 249.578 179.809 249.97 181.359C251.175 180.852 251.922 179.749 251.725 178.636C251.513 177.437 250.343 176.643 248.961 176.652Z" fill="#F0B6FF"/>
<path d="M261.812 193.442C261.812 193.442 266.344 194.107 271.891 190.861C277.439 187.615 282.21 180.808 282.21 180.808C282.21 180.808 284.099 180.508 285.098 181.997C286.069 183.491 286.628 186.824 287.873 187.537C288.164 187.685 288.917 187.786 290.03 187.922C291.839 188.169 294.528 188.56 297.387 189.754C299.516 190.643 301.748 191.948 303.774 193.922C304.699 194.825 305.561 195.872 306.366 197.096C312.707 206.67 314.385 242.774 314.385 242.774L295.754 246.038L246.484 250.364C246.484 250.364 244.022 238.811 243.589 233.877C242.725 224.031 242.441 215.555 245.763 208.871C249.084 202.187 256.572 195.933 258.804 194.24L258.473 192.366C258.444 192.371 260.156 193.234 261.812 193.442Z" fill="#602899"/>
<mask id="mask2_21_3551" style="mask-type:alpha" maskUnits="userSpaceOnUse" x="242" y="180" width="71" height="62">
<path d="M261.631 192.42C261.631 192.42 266.134 192.919 271.727 189.93C277.32 186.94 282.21 180.808 282.21 180.808C282.21 180.808 284.099 180.504 285.064 181.805C286.001 183.111 286.492 186.055 287.718 186.662C288.005 186.788 288.754 186.862 289.86 186.961C291.658 187.143 294.329 187.436 297.155 188.438C299.258 189.185 301.456 190.297 303.436 192.007C304.339 192.789 305.177 193.701 305.955 194.77C312.082 203.134 312.411 216.319 312.411 216.319L309.875 234.49C285.043 237.199 271.121 238.719 246.289 241.428L242.664 228.644C242.664 228.644 241.887 212.419 245.33 206.425C248.774 200.431 256.36 194.735 258.618 193.188L258.325 191.533C258.297 191.538 259.986 192.269 261.631 192.42Z" fill="#48D89E"/>
</mask>
<g mask="url(#mask2_21_3551)">
<path d="M297.461 197.33C295.79 197.625 294.196 196.51 293.901 194.839C293.606 193.169 294.721 191.575 296.391 191.28C298.062 190.985 299.656 192.1 299.951 193.77C300.246 195.441 299.131 197.035 297.461 197.33Z" fill="#AF5CFF"/>
<path d="M280.006 198.973C278.335 199.268 276.741 198.153 276.446 196.482C276.151 194.811 277.266 193.218 278.936 192.922C280.607 192.627 282.201 193.742 282.496 195.413C282.791 197.084 281.676 198.677 280.006 198.973Z" fill="#AF5CFF"/>
<path d="M265.857 194.851C264.186 195.146 262.593 194.031 262.298 192.361C262.002 190.69 263.117 189.096 264.788 188.801C266.459 188.506 268.052 189.621 268.348 191.292C268.643 192.962 267.528 194.556 265.857 194.851Z" fill="#AF5CFF"/>
<path d="M289.688 213.714C288.017 214.01 286.424 212.895 286.129 211.224C285.833 209.553 286.948 207.959 288.619 207.664C290.29 207.369 291.883 208.484 292.179 210.155C292.474 211.825 291.359 213.419 289.688 213.714Z" fill="#AF5CFF"/>
<path d="M297.047 229.634C295.376 229.929 293.782 228.814 293.487 227.144C293.192 225.473 294.307 223.879 295.977 223.584C297.648 223.289 299.242 224.404 299.537 226.075C299.832 227.745 298.717 229.339 297.047 229.634Z" fill="#AF5CFF"/>
<path d="M254.807 225.587C253.137 225.882 251.543 224.767 251.248 223.096C250.952 221.426 252.067 219.832 253.738 219.537C255.409 219.242 257.003 220.357 257.298 222.027C257.593 223.698 256.478 225.292 254.807 225.587Z" fill="#AF5CFF"/>
<path d="M267.044 212.769C265.373 213.064 263.779 211.949 263.484 210.279C263.189 208.608 264.304 207.014 265.974 206.719C267.645 206.424 269.239 207.539 269.534 209.209C269.829 210.88 268.714 212.474 267.044 212.769Z" fill="#AF5CFF"/>
<path d="M272.841 231.844C271.17 232.139 269.577 231.024 269.281 229.353C268.986 227.683 270.101 226.089 271.772 225.794C273.443 225.498 275.036 226.613 275.331 228.284C275.627 229.955 274.512 231.548 272.841 231.844Z" fill="#AF5CFF"/>
<path d="M252.237 202.378C250.567 202.674 248.973 201.559 248.678 199.888C248.383 198.217 249.498 196.624 251.168 196.328C252.839 196.033 254.433 197.148 254.728 198.819C255.023 200.489 253.908 202.083 252.237 202.378Z" fill="#AF5CFF"/>
</g>
<path d="M258.589 193.193C258.589 193.193 258.672 195.827 259.586 197.166C261.065 199.377 268.884 200.821 277.194 196.056C283.794 192.27 286.627 188.15 286.617 187.593" stroke="#191A1B" stroke-width="0.901407" stroke-miterlimit="10" stroke-linecap="round" stroke-linejoin="round"/>
<path d="M280.499 184.112C280.672 184.258 280.855 184.461 281.019 184.727C281.59 185.626 282.063 187.632 282.063 187.632" stroke="#191A1B" stroke-width="0.901407" stroke-miterlimit="10" stroke-linecap="round" stroke-linejoin="round"/>
<path d="M276.195 187.904C276.35 188.112 276.509 188.349 276.617 188.624C276.89 189.341 277.475 191.651 277.475 191.651" stroke="#191A1B" stroke-width="0.901407" stroke-miterlimit="10" stroke-linecap="round" stroke-linejoin="round"/>
<path d="M271.697 190.759C271.794 190.977 271.902 191.252 271.991 191.59C272.118 191.979 272.518 194.41 272.518 194.41" stroke="#191A1B" stroke-width="0.901407" stroke-miterlimit="10" stroke-linecap="round" stroke-linejoin="round"/>
<path d="M266.705 192.818C266.764 193.485 266.896 194.403 267.179 195.501" stroke="#191A1B" stroke-width="0.901407" stroke-miterlimit="10" stroke-linecap="round" stroke-linejoin="round"/>
<path d="M262.298 193.361C262.308 193.919 262.354 194.676 262.491 195.623" stroke="#191A1B" stroke-width="0.901407" stroke-miterlimit="10" stroke-linecap="round" stroke-linejoin="round"/>
<path d="M283.115 180.766C283.845 180.901 284.88 181.425 285.575 183.362" stroke="#191A1B" stroke-width="0.901407" stroke-miterlimit="10" stroke-linecap="round" stroke-linejoin="round"/>
<path d="M255.132 197.085C256.446 196.029 257.544 195.247 258.202 194.807L257.91 193.151" stroke="#191A1B" stroke-width="0.901407" stroke-miterlimit="10" stroke-linecap="round" stroke-linejoin="round"/>
<path d="M243.612 195.549C244.584 191.728 245.897 191.996 244.219 188.996C242.547 186.025 243.575 183.519 245.985 180.003C248.277 176.655 248.013 173.494 247.847 173.052C248.316 174.206 248.647 175.413 248.915 176.601C249.283 178.184 249.532 179.759 249.924 181.308C250.772 184.778 252.21 188.085 256.552 190.672C258.459 191.807 260.753 192.461 263.179 192.533C264.144 194.334 263.445 195.87 261.43 196.461C259.416 197.053 259.104 200.286 254.71 202.564C248.145 206.049 242.639 199.37 243.612 195.549Z" fill="#191A1B"/>
<path d="M250.523 158.718C249.979 159.138 249.415 158.944 248.99 158.371C245.589 158.443 245.989 165.199 245.945 165.619C245.907 166.067 246.061 167.276 246.87 170.518C247.335 172.319 234.429 161.239 243.164 154.045C242.264 153.115 241.85 147.773 247.587 145.435C249.647 144.6 252.797 146.104 256.171 144.713C269.358 139.234 284.113 139.628 286.202 157.946C286.646 161.958 287.146 166.284 294.385 167.948C302.789 169.877 303.918 178.594 298.723 181.337C296.571 182.482 305.012 186.288 301.424 191.631C299.565 194.431 294.627 190.301 290.953 193.658C285.404 198.729 281.976 197.481 280.471 196.128C277.395 193.375 279.371 186.405 279.371 186.405C279.371 186.405 277.796 184.652 277.21 183.667C274.351 178.816 278.561 175.659 278.561 175.659C285.211 171.659 282.52 163.923 278.958 164.082C275.224 164.271 274.658 167.726 274.599 168.56C274.599 168.56 272.161 173.582 264.144 164.522C256.185 155.452 252.949 156.789 250.523 158.718Z" fill="#191A1B"/>
<path d="M264.584 169.831C265.304 169.672 265.74 168.973 265.552 168.259L265.372 167.419C265.214 166.7 264.514 166.263 263.801 166.452C263.082 166.61 262.645 167.31 262.833 168.024L263.013 168.863C263.166 169.552 263.865 169.989 264.584 169.831Z" fill="#191A1B"/>
<path d="M251.956 172.53C252.615 172.382 253.027 171.718 252.879 171.059L252.711 170.28C252.563 169.621 251.899 169.209 251.24 169.357C250.581 169.504 250.17 170.168 250.317 170.827L250.486 171.607C250.634 172.265 251.298 172.677 251.956 172.53Z" fill="#191A1B"/>
<path d="M261.347 168.597C261.347 168.597 261.934 167.342 263.255 166.89C264.34 166.512 265.674 166.836 265.967 167.438" stroke="#191A1B" stroke-width="0.919558" stroke-miterlimit="10" stroke-linecap="round" stroke-linejoin="round"/>
<path d="M252.491 170.443C252.491 170.443 252.32 169.477 250.931 169.722C249.784 169.925 249.488 171.067 249.488 171.067" stroke="#191A1B" stroke-width="0.919558" stroke-miterlimit="10" stroke-linecap="round" stroke-linejoin="round"/>
<path d="M259.333 164.423C258.737 164.746 258.002 164.285 258 163.569C257.996 163.196 258.083 162.807 258.337 162.482C259.098 161.507 262.713 160.121 265.164 160.778C267.326 161.392 262.06 162.945 259.333 164.423Z" fill="#191A1B"/>
<path d="M250.393 166.501C250.938 166.592 251.386 165.952 251.183 165.334C251.094 165.008 250.915 164.697 250.631 164.498C249.778 163.902 247.202 163.766 245.83 165.16C244.637 166.336 247.884 166.042 250.393 166.501Z" fill="#191A1B"/>
<path opacity="0.6" d="M253.714 174.614C253.714 174.614 253.715 176.302 251.958 177.456C251.511 177.734 250.95 177.51 250.856 176.981C250.88 176.976 253.628 174.828 253.714 174.614Z" fill="#191A1B"/>
<path opacity="0.6" d="M257.59 169.859C257.59 169.859 255.778 168.591 254.978 168.559L257.108 168.679L257.59 169.859Z" fill="#191A1B"/>
<path opacity="0.6" d="M268.564 171.991C268.564 171.991 268.031 174.17 265.444 175.123C262.862 176.101 260.091 174.605 258.39 171.58C258.39 171.58 259.832 174.402 263.588 174.309C267.329 174.269 268.564 171.991 268.564 171.991Z" fill="#191A1B"/>
<path opacity="0.29" d="M262.346 161.945C265.74 161.345 269.01 163.696 269.646 167.158C269.935 168.794 269.597 170.393 268.802 171.65L258.504 164.361C259.4 163.111 260.734 162.23 262.346 161.945Z" fill="#DBC3ED"/>
<path opacity="0.23" d="M258.504 164.362L268.802 171.65C267.911 173.074 266.479 174.096 264.746 174.402C261.401 174.994 258.168 172.711 257.463 169.286C257.096 167.489 257.529 165.725 258.504 164.362Z" fill="#C4ADD8"/>
<path opacity="0.29" d="M248.267 164.433C250.842 163.978 253.51 166.436 254.219 169.884C254.514 171.272 254.426 172.603 254.08 173.731L245.115 167.522C245.645 165.889 246.775 164.697 248.267 164.433Z" fill="#DBC3ED"/>
<path opacity="0.23" d="M245.11 167.498L254.075 173.707C253.548 175.364 252.423 176.58 250.907 176.848C248.38 177.295 245.725 174.91 244.972 171.494C244.673 170.082 244.748 168.679 245.11 167.498Z" fill="#C4ADD8"/>
<path d="M257.468 169.31C258.148 172.739 261.405 175.018 264.75 174.426C268.096 173.835 270.278 170.595 269.67 167.154C269.033 163.692 265.764 161.341 262.37 161.941C258.977 162.541 256.759 165.861 257.468 169.31Z" stroke="#AF5CFF" stroke-width="0.760204" stroke-miterlimit="10" stroke-linecap="round" stroke-linejoin="round"/>
<path d="M244.977 171.517C245.729 174.933 248.385 177.318 250.912 176.872C253.439 176.425 254.923 173.309 254.219 169.884C253.51 166.435 250.842 163.978 248.267 164.433C245.692 164.888 244.22 168.077 244.977 171.517Z" stroke="#AF5CFF" stroke-width="0.760204" stroke-miterlimit="10" stroke-linecap="round" stroke-linejoin="round"/>
<path d="M269.478 166.493L272.896 165.889" stroke="#AF5CFF" stroke-width="0.760204" stroke-miterlimit="10" stroke-linecap="round" stroke-linejoin="round"/>
<path d="M257.324 168.64C257.324 168.64 254.265 168.039 254.099 169.21" stroke="#AF5CFF" stroke-width="0.760204" stroke-miterlimit="10" stroke-linecap="round" stroke-linejoin="round"/>
<path d="M284.004 148.763C286.181 152.19 288.651 151.716 289.993 154.517C290.467 155.507 289.875 157.596 289.055 158.224C287.276 159.588 277.909 158.773 271.54 158.117L260.414 155.742L248.247 154.251C243.161 152.838 241.587 154.034 240.553 148.812C239.323 142.599 247.956 135.828 256.739 134.948C259.588 134.884 258.715 132.298 261.709 133.053C263.669 133.547 261.72 135.174 265.098 136.043C274.1 139.051 282.494 146.388 284.004 148.763Z" fill="#F23DC0"/>
<path d="M263.409 136.497C263.3 135.39 262.792 133.122 261.631 132.911C260.18 132.647 258.418 134.155 258.232 135.748" stroke="#191A1B" stroke-width="0.921865" stroke-linecap="round"/>
<path d="M285.169 151.011C285.022 151.754 283.032 153.108 278.89 154.059" stroke="#191A1B" stroke-width="0.921865" stroke-linecap="round"/>
<path d="M236.8 213.402L224.722 219.595L239.018 248.62C239.018 248.62 241.776 252.492 251.33 247.995C253.954 246.76 257.719 244.211 257.719 244.211L250.667 232.597L236.8 213.402Z" fill="#602899"/>
<path d="M242.241 221.021C241.573 221.494 240.744 221.683 239.937 221.544C239.13 221.406 238.411 220.953 237.938 220.285C237.465 219.616 237.277 218.787 237.415 217.98C237.553 217.173 238.007 216.454 238.675 215.981L240.458 218.501L242.241 221.021Z" fill="#AF5CFF"/>
<path d="M247.741 241.442C246.251 241.705 244.828 240.71 244.565 239.219C244.301 237.728 245.296 236.306 246.787 236.043C248.278 235.779 249.7 236.774 249.964 238.265C250.227 239.756 249.232 241.178 247.741 241.442Z" fill="#AF5CFF"/>
<path d="M235.228 233.345C233.737 233.608 232.315 232.613 232.052 231.122C231.788 229.631 232.783 228.209 234.274 227.946C235.765 227.682 237.187 228.677 237.451 230.168C237.714 231.659 236.719 233.081 235.228 233.345Z" fill="#AF5CFF"/>
</g>
</g>
<path fill-rule="evenodd" clip-rule="evenodd" d="M316.67 128.161C315.378 124.878 310.654 123.282 308.918 123.529C308.916 124.454 309.041 126.288 309.559 127.096C309.902 127.632 310.386 129.67 310.778 131.573C310.64 131.805 310.532 132.06 310.461 132.335L281.48 244.355C280.74 245.762 279.997 247.056 279.611 247.404C278.897 248.047 276.53 250.183 276.288 251.075C284.051 251.582 285.195 250.524 286.485 248.92C287.017 248.259 287.187 247.742 287.47 246.621C287.517 246.504 287.557 246.383 287.59 246.258L288.45 242.932C288.524 242.679 288.603 242.412 288.688 242.132L288.659 242.126L316.274 135.385C316.291 135.324 316.31 135.26 316.331 135.192L316.331 135.191C316.748 133.781 317.663 130.684 316.67 128.161Z" fill="#7520C7"/>
<path d="M310.057 123.407L251.109 118.765C249.444 118.685 247.8 119.17 246.445 120.141C245.091 121.113 244.104 122.513 243.645 124.116L213.683 240.172C213.463 240.884 213.41 241.637 213.528 242.372C213.646 243.107 213.932 243.805 214.363 244.413C214.794 245.02 215.359 245.52 216.015 245.873C216.67 246.227 217.398 246.425 218.142 246.453L277.081 251.094C278.748 251.175 280.392 250.69 281.749 249.719C283.105 248.747 284.094 247.347 284.555 245.743L314.517 129.687C314.734 128.975 314.786 128.223 314.667 127.489C314.548 126.754 314.262 126.057 313.831 125.45C313.401 124.843 312.836 124.343 312.182 123.989C311.528 123.635 310.801 123.436 310.057 123.407ZM281.754 241.876C281.362 243.361 280.481 244.67 279.253 245.592C278.026 246.515 276.524 246.997 274.989 246.961L222.253 242.838C219.299 242.606 217.542 239.95 218.339 236.891L246.237 128.824C247.839 122.561 250.311 122.487 253.265 122.719L263.837 123.546C264.446 123.548 264.775 124.301 264.567 125.124L264.467 125.482C263.969 127.423 265.08 127.516 266.44 127.618L290.861 129.531C292.239 129.642 293.341 129.717 293.839 127.749L293.938 127.391C294.146 126.559 294.838 125.934 295.437 125.98L306.001 126.807C308.955 127.039 311.128 128.057 309.661 133.756L281.754 241.876Z" fill="#AF5CFF"/>
<path d="M298.631 159.088C298.315 160.992 298.917 169.897 299.257 174.111C300.092 170.716 301.828 163.763 302.089 163.115C302.415 162.306 305.69 161.65 306.663 161.572C307.097 161.536 309.86 153.362 309.599 152.838C309.132 151.897 302.685 152.452 301.596 153.519C300.846 154.255 299.026 156.707 298.631 159.088Z" fill="white"/>
<path d="M303.306 160.272C304.268 159.917 306.356 159.544 307.646 159.695" stroke="#191A1B" stroke-width="0.340563" stroke-linecap="round" stroke-linejoin="round"/>
<path d="M303.947 157.481C304.922 157.17 307.023 156.894 308.306 157.104" stroke="#191A1B" stroke-width="0.340563" stroke-linecap="round" stroke-linejoin="round"/>
<path d="M304.913 154.756C305.894 154.468 308.001 154.24 309.279 154.479" stroke="#191A1B" stroke-width="0.340563" stroke-linecap="round" stroke-linejoin="round"/>
<g clip-path="url(#clip2_21_3551)">
<path d="M234.25 209.162C233.937 212.35 236.988 213.808 237.029 215.582C234.326 218.301 228.265 223.066 227.783 222.549C227.181 221.902 223.448 216.628 222.544 215.657C221.64 214.686 210.76 208.489 210.519 195.796C210.447 191.971 215.59 189.284 218.557 192.388L222.969 197.19C222.969 197.19 226.157 202.023 227.44 201.13C228.723 200.237 226.005 197.258 226.15 194.503C226.299 191.677 227.997 191.77 228.287 192.406C229.012 193.996 231.437 197.268 232.751 202.034C232.751 202.034 234.515 206.47 234.25 209.162Z" fill="white"/>
<path d="M249.18 212.369C249.405 212.477 249.659 212.579 249.884 212.686C250.137 212.789 250.362 212.896 250.611 212.97C250.831 213.049 251.022 213.133 251.242 213.211C251.276 213.235 251.304 213.23 251.338 213.253C252.065 213.537 252.815 213.787 253.561 214.008C253.781 214.087 254.029 214.161 254.244 214.211C254.244 214.211 254.278 214.235 254.306 214.23C254.555 214.304 254.803 214.377 255.052 214.451C255.549 214.599 256.069 214.713 256.561 214.832C256.809 214.906 257.081 214.946 257.325 214.991C257.568 215.036 257.845 215.105 258.089 215.151C258.332 215.196 258.609 215.265 258.853 215.31C258.853 215.31 258.853 215.31 258.881 215.305C259.124 215.35 259.396 215.39 259.64 215.436C260.184 215.516 260.756 215.591 261.3 215.672C261.482 215.699 261.691 215.72 261.873 215.747C262.445 215.823 263.013 215.87 263.575 215.888C263.785 215.91 263.99 215.903 264.228 215.92C264.762 215.943 265.324 215.961 265.858 215.985C265.977 215.993 266.063 215.978 266.182 215.986C266.358 215.985 266.563 215.978 266.74 215.976C267.001 215.959 267.24 215.976 267.502 215.959C267.621 215.968 267.735 215.947 267.854 215.956C268.002 215.959 268.178 215.957 268.349 215.927C268.816 215.903 269.311 215.875 269.778 215.851C269.926 215.855 270.097 215.824 270.245 215.828L270.273 215.823C270.478 215.816 270.678 215.78 270.883 215.774C271.088 215.767 271.287 215.732 271.487 215.696C271.601 215.676 271.749 215.679 271.863 215.659C272.091 215.619 272.296 215.612 272.496 215.577C272.781 215.526 273.043 215.51 273.329 215.459C273.614 215.409 273.871 215.363 274.156 215.313C274.356 215.278 274.556 215.242 274.756 215.207C286.74 212.913 296.681 205.888 302.954 196.422C302.954 196.422 302.949 196.393 302.978 196.388C301.786 194.804 297.949 192.244 294.066 190.253C289.148 187.737 282.654 186.795 282.654 186.795C282.654 186.795 278.514 186.85 264.139 192.598C253.176 197.007 250.044 207.596 249.18 212.369Z" fill="white"/>
<path d="M262.368 201.063C263.487 203.896 267.676 204.951 273.747 201.171C281.191 196.5 282.654 186.795 282.654 186.795C281.922 180.156 281.928 174.357 281.928 174.357C272.512 175.197 263.47 187.978 263.47 187.978L263.162 193.565C263.129 194.042 262.971 194.482 262.679 194.828C262.261 195.961 261.636 199.25 262.368 201.063Z" fill="white"/>
<path d="M262.684 194.856C268.084 193.608 271.967 192.097 274.91 183.602C271.827 187.472 267.734 189.461 263.298 190.834L263.162 193.565C263.134 194.07 262.976 194.51 262.684 194.856Z" fill="#F0B6FF"/>
<path d="M245.335 162.46C245.245 164.948 245.331 166.934 247.859 173.079C250.387 179.225 248.834 186.091 256.603 190.751C261.836 193.888 269.901 193.228 275.475 187.799C277.358 185.965 278.969 183.591 280.098 180.655C280.985 178.35 282.093 176.123 283.402 174.038C285.223 171.185 287.061 165.769 284.177 157.274C279.497 143.445 265.14 144.304 257.113 147.342C249.086 150.379 245.614 155.877 245.335 162.46Z" fill="white"/>
<path d="M263.09 180.795C263.09 180.795 262.249 183.036 257.4 183.47" stroke="#191A1B" stroke-width="0.851172" stroke-miterlimit="10" stroke-linecap="round" stroke-linejoin="round"/>
<path d="M274.617 168.793C274.617 168.793 274.745 164.356 279.003 164.133C282.679 163.954 285.458 172.351 277.719 176.19" fill="white"/>
<path d="M277.285 172.235C277.285 172.235 278.197 171.397 277.881 170.275C277.473 168.964 277.498 168.107 278.08 167.739C279.534 166.805 280.17 168.576 280.154 168.814" stroke="#191A1B" stroke-width="0.901407" stroke-miterlimit="10" stroke-linecap="round" stroke-linejoin="round"/>
<path d="M256.001 178.851C256.001 178.851 254.926 179.1 253.682 178.054C252.99 177.47 252.354 176.7 252.623 176.387C252.886 176.046 258.193 175.933 258.656 176.557C259.12 177.181 257.314 178.619 256.001 178.851Z" fill="#F0B6FF"/>
<path d="M253.45 169.413C253.45 169.413 253.872 172.134 252.666 175.467C252.132 176.944 253.69 178.935 256.296 178.857" stroke="#191A1B" stroke-width="0.901407" stroke-miterlimit="10" stroke-linecap="round" stroke-linejoin="round"/>
<path opacity="0.42" d="M270.869 177.724C269.246 178.011 267.738 177.158 267.501 175.818C267.264 174.478 268.388 173.16 270.012 172.873C271.635 172.586 273.143 173.44 273.38 174.779C273.617 176.119 272.492 177.438 270.869 177.724Z" fill="#F0B6FF"/>
<path opacity="0.42" d="M248.961 176.652C249.329 178.235 249.578 179.809 249.97 181.359C251.175 180.852 251.922 179.749 251.725 178.636C251.513 177.437 250.343 176.643 248.961 176.652Z" fill="#F0B6FF"/>
<path d="M261.812 193.442C261.812 193.442 266.344 194.107 271.891 190.861C277.439 187.615 282.21 180.808 282.21 180.808C282.21 180.808 284.099 180.508 285.098 181.997C286.069 183.491 286.628 186.824 287.873 187.537C288.164 187.686 288.917 187.786 290.03 187.922C291.839 188.169 294.528 188.56 297.387 189.754C299.516 190.644 301.748 191.948 303.774 193.923C304.699 194.825 305.561 195.872 306.366 197.096C312.707 206.67 314.385 242.774 314.385 242.774L295.754 246.038L246.484 250.364C246.484 250.364 244.022 238.811 243.589 233.877C242.725 224.031 242.441 215.555 245.763 208.872C249.084 202.188 256.572 195.933 258.804 194.24L258.473 192.366C258.444 192.371 260.156 193.234 261.812 193.442Z" fill="#602899"/>
<mask id="mask3_21_3551" style="mask-type:alpha" maskUnits="userSpaceOnUse" x="242" y="180" width="71" height="62">
<path d="M261.631 192.42C261.631 192.42 266.134 192.919 271.727 189.93C277.32 186.94 282.21 180.808 282.21 180.808C282.21 180.808 284.099 180.504 285.064 181.805C286.001 183.111 286.492 186.055 287.718 186.662C288.005 186.788 288.754 186.862 289.86 186.961C291.658 187.143 294.329 187.437 297.155 188.438C299.258 189.185 301.456 190.297 303.436 192.007C304.339 192.789 305.177 193.701 305.955 194.77C312.082 203.134 312.411 216.319 312.411 216.319L309.875 234.49C285.043 237.199 271.121 238.719 246.289 241.428L242.664 228.644C242.664 228.644 241.887 212.419 245.33 206.425C248.774 200.431 256.36 194.735 258.618 193.188L258.325 191.533C258.297 191.538 259.986 192.269 261.631 192.42Z" fill="#48D89E"/>
</mask>
<g mask="url(#mask3_21_3551)">
<path d="M280.005 198.973C278.334 199.268 276.741 198.153 276.445 196.482C276.15 194.811 277.265 193.218 278.936 192.923C280.607 192.627 282.2 193.742 282.495 195.413C282.791 197.084 281.676 198.677 280.005 198.973Z" fill="#AF5CFF"/>
<path d="M265.857 194.851C264.186 195.146 262.593 194.031 262.298 192.361C262.002 190.69 263.117 189.096 264.788 188.801C266.459 188.506 268.052 189.621 268.348 191.292C268.643 192.962 267.528 194.556 265.857 194.851Z" fill="#AF5CFF"/>
<path d="M289.688 213.714C288.017 214.01 286.424 212.895 286.129 211.224C285.833 209.553 286.948 207.959 288.619 207.664C290.29 207.369 291.883 208.484 292.179 210.155C292.474 211.825 291.359 213.419 289.688 213.714Z" fill="#AF5CFF"/>
<path d="M254.807 225.587C253.136 225.882 251.542 224.767 251.247 223.097C250.952 221.426 252.067 219.832 253.738 219.537C255.408 219.242 257.002 220.357 257.297 222.027C257.592 223.698 256.477 225.292 254.807 225.587Z" fill="#AF5CFF"/>
<path d="M267.044 212.769C265.373 213.064 263.779 211.949 263.484 210.279C263.189 208.608 264.304 207.014 265.974 206.719C267.645 206.424 269.239 207.539 269.534 209.209C269.829 210.88 268.714 212.474 267.044 212.769Z" fill="#AF5CFF"/>
<path d="M272.841 231.844C271.17 232.139 269.577 231.024 269.281 229.353C268.986 227.683 270.101 226.089 271.772 225.794C273.443 225.498 275.036 226.613 275.331 228.284C275.627 229.955 274.512 231.548 272.841 231.844Z" fill="#AF5CFF"/>
<path d="M252.237 202.378C250.567 202.674 248.973 201.559 248.678 199.888C248.383 198.217 249.498 196.624 251.168 196.328C252.839 196.033 254.433 197.148 254.728 198.819C255.023 200.49 253.908 202.083 252.237 202.378Z" fill="#AF5CFF"/>
</g>
<path d="M258.589 193.193C258.589 193.193 258.672 195.827 259.586 197.166C261.065 199.377 268.884 200.821 277.194 196.056C283.794 192.271 286.627 188.15 286.617 187.593" stroke="#191A1B" stroke-width="0.901407" stroke-miterlimit="10" stroke-linecap="round" stroke-linejoin="round"/>
<path d="M280.499 184.112C280.672 184.258 280.855 184.461 281.019 184.727C281.59 185.626 282.063 187.632 282.063 187.632" stroke="#191A1B" stroke-width="0.901407" stroke-miterlimit="10" stroke-linecap="round" stroke-linejoin="round"/>
<path d="M276.195 187.904C276.35 188.112 276.509 188.349 276.617 188.624C276.89 189.341 277.475 191.651 277.475 191.651" stroke="#191A1B" stroke-width="0.901407" stroke-miterlimit="10" stroke-linecap="round" stroke-linejoin="round"/>
<path d="M271.697 190.759C271.794 190.977 271.902 191.253 271.991 191.59C272.118 191.979 272.518 194.41 272.518 194.41" stroke="#191A1B" stroke-width="0.901407" stroke-miterlimit="10" stroke-linecap="round" stroke-linejoin="round"/>
<path d="M266.705 192.818C266.764 193.485 266.896 194.403 267.179 195.501" stroke="#191A1B" stroke-width="0.901407" stroke-miterlimit="10" stroke-linecap="round" stroke-linejoin="round"/>
<path d="M262.298 193.361C262.308 193.919 262.354 194.676 262.491 195.623" stroke="#191A1B" stroke-width="0.901407" stroke-miterlimit="10" stroke-linecap="round" stroke-linejoin="round"/>
<path d="M283.115 180.766C283.845 180.901 284.88 181.425 285.575 183.362" stroke="#191A1B" stroke-width="0.901407" stroke-miterlimit="10" stroke-linecap="round" stroke-linejoin="round"/>
<path d="M255.132 197.085C256.446 196.029 257.544 195.247 258.202 194.807L257.91 193.151" stroke="#191A1B" stroke-width="0.901407" stroke-miterlimit="10" stroke-linecap="round" stroke-linejoin="round"/>
<path d="M243.612 195.549C244.584 191.728 245.897 191.996 244.219 188.997C242.547 186.026 243.575 183.519 245.985 180.003C248.277 176.655 248.013 173.494 247.847 173.052C248.316 174.206 248.647 175.413 248.915 176.601C249.283 178.184 249.532 179.759 249.924 181.308C250.772 184.778 252.21 188.085 256.552 190.672C258.459 191.807 260.753 192.461 263.179 192.533C264.144 194.334 263.445 195.87 261.43 196.461C259.416 197.053 259.104 200.286 254.71 202.564C248.145 206.049 242.639 199.37 243.612 195.549Z" fill="#191A1B"/>
<path d="M250.523 158.718C249.979 159.138 249.415 158.944 248.99 158.371C245.589 158.443 245.989 165.2 245.945 165.619C245.907 166.067 246.061 167.276 246.87 170.518C247.335 172.319 234.429 161.239 243.164 154.045C242.264 153.115 241.85 147.773 247.587 145.435C249.647 144.6 252.797 146.104 256.171 144.713C269.358 139.234 284.113 139.628 286.202 157.946C286.646 161.958 287.146 166.284 294.385 167.948C302.789 169.877 303.918 178.594 298.723 181.337C296.571 182.482 305.012 186.288 301.424 191.631C299.565 194.431 294.627 190.301 290.953 193.658C285.404 198.729 281.976 197.481 280.471 196.128C277.395 193.375 279.371 186.405 279.371 186.405C279.371 186.405 277.796 184.652 277.21 183.667C274.351 178.816 278.561 175.659 278.561 175.659C285.211 171.659 282.52 163.924 278.958 164.082C275.224 164.271 274.658 167.726 274.599 168.56C274.599 168.56 272.161 173.582 264.144 164.522C256.185 155.452 252.949 156.789 250.523 158.718Z" fill="#191A1B"/>
<path d="M264.584 169.831C265.304 169.673 265.74 168.973 265.552 168.259L265.372 167.419C265.214 166.7 264.514 166.264 263.801 166.452C263.082 166.61 262.645 167.31 262.833 168.024L263.013 168.863C263.166 169.552 263.865 169.989 264.584 169.831Z" fill="#191A1B"/>
<path d="M251.956 172.53C252.615 172.382 253.027 171.718 252.879 171.059L252.711 170.28C252.563 169.621 251.899 169.209 251.24 169.357C250.581 169.504 250.17 170.168 250.317 170.827L250.486 171.607C250.634 172.265 251.298 172.677 251.956 172.53Z" fill="#191A1B"/>
<path d="M261.347 168.597C261.347 168.597 261.934 167.342 263.255 166.89C264.34 166.512 265.674 166.837 265.967 167.438" stroke="#191A1B" stroke-width="0.919558" stroke-miterlimit="10" stroke-linecap="round" stroke-linejoin="round"/>
<path d="M252.491 170.443C252.491 170.443 252.32 169.477 250.931 169.722C249.784 169.925 249.488 171.067 249.488 171.067" stroke="#191A1B" stroke-width="0.919558" stroke-miterlimit="10" stroke-linecap="round" stroke-linejoin="round"/>
<path d="M259.333 164.423C258.737 164.746 258.002 164.285 258 163.569C257.996 163.196 258.083 162.807 258.337 162.482C259.098 161.507 262.713 160.122 265.164 160.778C267.326 161.392 262.06 162.945 259.333 164.423Z" fill="#191A1B"/>
<path d="M250.393 166.501C250.938 166.592 251.386 165.952 251.183 165.334C251.094 165.008 250.915 164.697 250.631 164.498C249.778 163.902 247.202 163.766 245.83 165.16C244.637 166.336 247.884 166.042 250.393 166.501Z" fill="#191A1B"/>
<path opacity="0.6" d="M253.714 174.614C253.714 174.614 253.714 176.302 251.958 177.456C251.51 177.734 250.949 177.51 250.856 176.981C250.88 176.977 253.628 174.828 253.714 174.614Z" fill="#191A1B"/>
<path opacity="0.6" d="M257.59 169.859C257.59 169.859 255.778 168.591 254.978 168.559L257.108 168.679L257.59 169.859Z" fill="#191A1B"/>
<path opacity="0.6" d="M268.564 171.991C268.564 171.991 268.031 174.17 265.444 175.123C262.862 176.101 260.091 174.605 258.39 171.58C258.39 171.58 259.832 174.402 263.588 174.309C267.329 174.269 268.564 171.991 268.564 171.991Z" fill="#191A1B"/>
<path opacity="0.29" d="M262.346 161.945C265.74 161.345 269.01 163.696 269.646 167.158C269.935 168.794 269.597 170.393 268.802 171.65L258.504 164.361C259.4 163.111 260.734 162.23 262.346 161.945Z" fill="#DBC3ED"/>
<path opacity="0.23" d="M258.504 164.362L268.802 171.651C267.911 173.074 266.479 174.096 264.746 174.402C261.401 174.994 258.168 172.711 257.463 169.286C257.096 167.489 257.529 165.725 258.504 164.362Z" fill="#C4ADD8"/>
<path opacity="0.29" d="M248.267 164.433C250.842 163.978 253.51 166.436 254.219 169.884C254.514 171.272 254.426 172.603 254.08 173.731L245.115 167.522C245.645 165.89 246.775 164.697 248.267 164.433Z" fill="#DBC3ED"/>
<path opacity="0.23" d="M245.11 167.498L254.075 173.707C253.548 175.364 252.423 176.58 250.907 176.848C248.38 177.295 245.725 174.91 244.972 171.494C244.673 170.082 244.748 168.679 245.11 167.498Z" fill="#C4ADD8"/>
<path d="M257.468 169.31C258.148 172.739 261.405 175.018 264.75 174.426C268.096 173.835 270.278 170.595 269.67 167.154C269.033 163.692 265.764 161.341 262.37 161.941C258.977 162.541 256.759 165.861 257.468 169.31Z" stroke="#AF5CFF" stroke-width="0.760204" stroke-miterlimit="10" stroke-linecap="round" stroke-linejoin="round"/>
<path d="M244.977 171.517C245.729 174.933 248.385 177.318 250.912 176.872C253.439 176.425 254.923 173.309 254.219 169.884C253.51 166.435 250.842 163.978 248.267 164.433C245.692 164.888 244.22 168.077 244.977 171.517Z" stroke="#AF5CFF" stroke-width="0.760204" stroke-miterlimit="10" stroke-linecap="round" stroke-linejoin="round"/>
<path d="M269.478 166.493L272.896 165.889" stroke="#AF5CFF" stroke-width="0.760204" stroke-miterlimit="10" stroke-linecap="round" stroke-linejoin="round"/>
<path d="M257.324 168.64C257.324 168.64 254.265 168.039 254.099 169.21" stroke="#AF5CFF" stroke-width="0.760204" stroke-miterlimit="10" stroke-linecap="round" stroke-linejoin="round"/>
<path d="M284.004 148.763C286.181 152.19 288.651 151.716 289.993 154.517C290.467 155.507 289.875 157.596 289.055 158.224C287.276 159.588 277.909 158.773 271.54 158.117L260.414 155.743L248.247 154.251C243.161 152.838 241.587 154.034 240.553 148.812C239.323 142.599 247.956 135.828 256.739 134.948C259.588 134.884 258.715 132.298 261.709 133.053C263.669 133.547 261.72 135.175 265.098 136.043C274.1 139.051 282.494 146.388 284.004 148.763Z" fill="#F23DC0"/>
<path d="M263.41 136.497C263.301 135.39 262.792 133.122 261.632 132.911C260.181 132.647 258.419 134.155 258.232 135.748" stroke="#191A1B" stroke-width="0.921865" stroke-linecap="round"/>
<path d="M285.169 151.011C285.022 151.754 283.032 153.108 278.89 154.059" stroke="#191A1B" stroke-width="0.921865" stroke-linecap="round"/>
<path d="M236.799 213.402L224.721 219.595L239.018 248.62C239.018 248.62 241.775 252.492 251.33 247.995C253.954 246.761 257.718 244.211 257.718 244.211L250.666 232.597L236.799 213.402Z" fill="#602899"/>
<path d="M242.241 221.021C241.573 221.494 240.744 221.683 239.937 221.544C239.13 221.406 238.411 220.953 237.938 220.285C237.465 219.616 237.277 218.787 237.415 217.98C237.553 217.173 238.006 216.454 238.674 215.981L240.458 218.501L242.241 221.021Z" fill="#AF5CFF"/>
</g>
<path d="M46.9592 188.974H47.4592V188.474V179.317C47.4592 176.707 45.3431 174.591 42.7328 174.591H15.9661C13.3558 174.591 11.2397 176.707 11.2397 179.317V184.248C11.2397 186.858 13.3558 188.974 15.9661 188.974H46.9592Z" fill="white" stroke="#7520C7"/>
<circle cx="19.8234" cy="181.783" r="2.3815" fill="#7520C7"/>
<circle cx="29.3493" cy="181.783" r="2.3815" fill="#7520C7"/>
<circle cx="38.8756" cy="181.783" r="2.3815" fill="#7520C7"/>
<mask id="path-235-outside-1_21_3551" maskUnits="userSpaceOnUse" x="221.157" y="166.376" width="22" height="23" fill="black">
<rect fill="white" x="221.157" y="166.376" width="22" height="23"/>
<path fill-rule="evenodd" clip-rule="evenodd" d="M232.607 186.476C227.332 186.476 223.057 182.201 223.057 176.926C223.057 171.652 227.332 167.376 232.607 167.376C237.881 167.376 242.157 171.652 242.157 176.926C242.157 179.524 241.12 181.879 239.438 183.6L241.726 187.757L237.104 185.353C235.764 186.07 234.233 186.476 232.607 186.476Z"/>
</mask>
<path fill-rule="evenodd" clip-rule="evenodd" d="M232.607 186.476C227.332 186.476 223.057 182.201 223.057 176.926C223.057 171.652 227.332 167.376 232.607 167.376C237.881 167.376 242.157 171.652 242.157 176.926C242.157 179.524 241.12 181.879 239.438 183.6L241.726 187.757L237.104 185.353C235.764 186.07 234.233 186.476 232.607 186.476Z" fill="white"/>
<path d="M239.438 183.6L238.562 184.083C238.349 183.696 238.414 183.217 238.722 182.901L239.438 183.6ZM241.726 187.757L242.602 187.275C242.815 187.661 242.749 188.14 242.442 188.456C242.134 188.771 241.656 188.848 241.265 188.644L241.726 187.757ZM237.104 185.353L236.632 184.472C236.923 184.316 237.272 184.314 237.565 184.466L237.104 185.353ZM224.057 176.926C224.057 181.648 227.885 185.476 232.607 185.476V187.476C226.78 187.476 222.057 182.753 222.057 176.926H224.057ZM232.607 168.376C227.885 168.376 224.057 172.204 224.057 176.926H222.057C222.057 171.1 226.78 166.376 232.607 166.376V168.376ZM241.157 176.926C241.157 172.204 237.329 168.376 232.607 168.376V166.376C238.433 166.376 243.157 171.1 243.157 176.926H241.157ZM238.722 182.901C240.23 181.359 241.157 179.252 241.157 176.926H243.157C243.157 179.795 242.01 182.398 240.153 184.299L238.722 182.901ZM240.85 188.239L238.562 184.083L240.314 183.118L242.602 187.275L240.85 188.239ZM237.565 184.466L242.188 186.87L241.265 188.644L236.642 186.241L237.565 184.466ZM232.607 185.476C234.064 185.476 235.434 185.113 236.632 184.472L237.575 186.235C236.094 187.028 234.401 187.476 232.607 187.476V185.476Z" fill="#7520C7" mask="url(#path-235-outside-1_21_3551)"/>
<path d="M232.564 182.232L233.298 181.564C235.904 179.201 237.624 177.638 237.624 175.73C237.624 174.167 236.4 172.947 234.841 172.947C233.961 172.947 233.116 173.357 232.564 174C232.013 173.357 231.168 172.947 230.287 172.947C228.729 172.947 227.504 174.167 227.504 175.73C227.504 177.638 229.225 179.201 231.831 181.564L232.564 182.232Z" fill="#F23DC0"/>
<defs>
<clipPath id="clip0_21_3551">
<rect width="162.242" height="145.808" fill="white" transform="translate(84.8618 45.2822)"/>
</clipPath>
<clipPath id="clip1_21_3551">
<rect width="135.268" height="139.074" fill="white" transform="translate(181.446 127.061) rotate(-9.94874)"/>
</clipPath>
<clipPath id="clip2_21_3551">
<rect width="90.7896" height="90.457" fill="white" transform="translate(183.089 136.432) rotate(-9.94874)"/>
</clipPath>
</defs>
</svg>
