<svg width="14" height="14" viewBox="0 0 14 14" fill="none" xmlns="http://www.w3.org/2000/svg">
<path d="M6.06278 1.3339L0.900793 6.49588C0.498564 6.89814 0.498564 7.55028 0.900793 7.95254L3.96595 11.0177C4.3682 11.42 5.02035 11.42 5.4226 11.0177L10.5846 5.85573C10.9868 5.45348 10.9868 4.80133 10.5846 4.39908L7.5194 1.3339C7.11717 0.931669 6.46501 0.931669 6.06278 1.3339Z" fill="#F9C02E"/>
<path d="M8.41005 2.34716L2.08792 5.99721C1.59529 6.28165 1.4265 6.91159 1.71091 7.40422L3.87832 11.1583C4.16276 11.6509 4.79267 11.8197 5.28533 11.5353L11.6074 7.88523C12.1001 7.60079 12.2689 6.97087 11.9844 6.47821L9.81707 2.72414C9.53263 2.23151 8.90269 2.06272 8.41005 2.34716Z" fill="#F9C02E"/>
<path d="M10.8851 13.7189H1.70548C1.02191 13.7189 0.467773 13.1647 0.467773 12.4812V6.08634C0.467773 5.40276 1.02191 4.84863 1.70548 4.84863H10.8851C11.5687 4.84863 12.1228 5.40276 12.1228 6.08634V12.4812C12.1228 13.1647 11.5687 13.7189 10.8851 13.7189Z" fill="white"/>
<path d="M12.6385 10.4185H9.95683C9.33022 10.4185 8.82227 9.91059 8.82227 9.28398C8.82227 8.65736 9.33022 8.14941 9.95683 8.14941H12.6385C12.9234 8.14941 13.1542 8.3803 13.1542 8.66513V9.90283C13.1542 10.1877 12.9234 10.4185 12.6385 10.4185Z" fill="#F9C02E"/>
<path d="M12.6381 7.89162H12.3803V6.08664C12.3803 5.37506 11.8806 4.77838 11.2138 4.628L10.0401 2.59522C9.86815 2.29732 9.59044 2.0842 9.25814 1.99516C9.02352 1.93232 8.7816 1.93694 8.55474 2.00543L7.70134 1.152C7.19917 0.649879 6.38217 0.649828 5.88 1.152L2.44098 4.59107H1.70504C0.880387 4.59107 0.209473 5.26199 0.209473 6.08664V12.4815C0.209473 13.3061 0.880387 13.977 1.70504 13.977H5.13451C5.2769 13.977 5.39237 13.8615 5.39237 13.7192C5.39237 13.5768 5.2769 13.4613 5.13451 13.4613H1.70504C1.16475 13.4613 0.725184 13.0217 0.725184 12.4815V6.08664C0.725184 5.54635 1.16475 5.10678 1.70504 5.10678H10.8847C11.425 5.10678 11.8645 5.54635 11.8645 6.08664V7.89162H9.95642C9.18865 7.89162 8.56399 8.51628 8.56399 9.28405C8.56399 10.0518 9.18865 10.6765 9.95642 10.6765H11.8645V12.4815C11.8645 13.0217 11.425 13.4613 10.8847 13.4613H7.45522C7.31283 13.4613 7.19736 13.5768 7.19736 13.7192C7.19736 13.8615 7.31283 13.977 7.45522 13.977H10.8847C11.7093 13.977 12.3803 13.3061 12.3803 12.4815V10.6765H12.6381C13.0647 10.6765 13.4117 10.3294 13.4117 9.9029V8.66519C13.4117 8.23867 13.0647 7.89162 12.6381 7.89162ZM9.12468 2.49331C9.32389 2.54669 9.49042 2.67446 9.59353 2.85308L10.597 4.59107H5.03893L8.53875 2.57044C8.71734 2.46735 8.92538 2.43991 9.12468 2.49331ZM6.24469 1.51669C6.3905 1.37084 6.58444 1.29052 6.79067 1.29052C6.99693 1.29052 7.19086 1.37084 7.33668 1.51669L8.06721 2.24722L4.00753 4.59107H3.17033L6.24469 1.51669ZM12.896 9.9029C12.896 10.0451 12.7803 10.1608 12.6381 10.1608H9.95642C9.47299 10.1608 9.07971 9.76747 9.07971 9.28405C9.07971 8.80062 9.47299 8.40734 9.95642 8.40734H12.6381C12.7803 8.40734 12.896 8.52301 12.896 8.66519V9.9029Z" fill="#6A4F8F"/>
<path d="M9.91386 9.02637C9.84605 9.02637 9.77952 9.05393 9.73156 9.10192C9.6836 9.14991 9.65601 9.21615 9.65601 9.28422C9.65601 9.35204 9.68357 9.41857 9.73156 9.4665C9.77952 9.51446 9.84605 9.54208 9.91386 9.54208C9.98194 9.54208 10.0482 9.51449 10.0961 9.4665C10.1444 9.41857 10.1717 9.35204 10.1717 9.28422C10.1717 9.21641 10.1444 9.14988 10.0961 9.10192C10.0482 9.05396 9.98194 9.02637 9.91386 9.02637Z" fill="#6A4F8F"/>
<path d="M6.2957 13.4609C6.22788 13.4609 6.16135 13.4885 6.11339 13.5365C6.06543 13.5845 6.03784 13.651 6.03784 13.7188C6.03784 13.7866 6.06541 13.8531 6.11339 13.9011C6.16135 13.949 6.22788 13.9766 6.2957 13.9766C6.36351 13.9766 6.43004 13.9491 6.47798 13.9011C6.52594 13.8531 6.55355 13.7866 6.55355 13.7188C6.55355 13.651 6.52596 13.5845 6.47798 13.5365C6.43004 13.4885 6.36351 13.4609 6.2957 13.4609Z" fill="#6A4F8F"/>
</svg>
