<svg width="18" height="19" viewBox="0 0 18 19" fill="none" xmlns="http://www.w3.org/2000/svg">
<path d="M12.2038 7.49121C8.22644 9.98496 3.61631 8.53027 1.80842 7.49121L1.35645 9.71777L2.71236 11.0537L8.58802 11.499L10.8479 11.0537L12.6558 9.71777L12.2038 7.49121Z" fill="#FBAF18"/>
<path d="M16.7238 10.1631C12.7465 12.6568 8.13633 11.2021 6.32844 10.1631L5.87646 12.3896L7.23238 13.7256L13.108 14.1709L15.3679 13.7256L17.1758 12.3896L16.7238 10.1631Z" fill="#FBAF18"/>
<ellipse cx="6.78012" cy="6.15527" rx="5.42368" ry="2.22656" fill="#F9C02E"/>
<path d="M12.204 8.82715L10.3961 10.6084L9.94409 11.0537L12.204 11.9443L14.9158 11.0537L16.7237 10.1631V8.82715L15.3678 7.49121L13.1079 7.0459L12.204 8.82715Z" fill="#F9C02E"/>
<path d="M13.2276 6.63367C13.0196 6.60185 12.862 6.42521 12.862 6.21484V6.21484C12.862 4.56365 10.1968 3.32031 6.65732 3.32031C3.11783 3.32031 0.452637 4.56365 0.452637 6.21484V8.84624C0.452637 10.1585 2.13552 11.2131 4.6062 11.5924C4.81043 11.6238 4.96514 11.7973 4.96514 12.0039V12.0039C4.96514 13.6551 7.63033 14.8984 11.1698 14.8984C14.7093 14.8984 17.3745 13.6551 17.3745 12.0039V9.37251C17.3745 8.07271 15.7428 7.01865 13.2276 6.63367ZM16.2464 9.37251C16.2464 10.2409 14.0747 11.2145 11.1698 11.2145V11.2145C10.9966 11.2145 10.9578 10.9717 11.1146 10.8979C12.2071 10.3837 12.862 9.66474 12.862 8.84624V8.84624C12.862 8.21032 13.4281 7.71411 14.0421 7.87971C15.4368 8.25587 16.2464 8.86427 16.2464 9.37251ZM5.63765 10.6472C5.25032 10.6143 4.96514 10.2815 4.96514 9.89275V9.89275C4.96514 9.42359 5.37523 9.06165 5.84366 9.08781C6.1145 9.10293 6.38586 9.11013 6.65732 9.10937C6.92879 9.11013 7.20015 9.10293 7.47099 9.08781C7.93942 9.06165 8.34951 9.42359 8.34951 9.89275V9.89275C8.34951 10.2815 8.06433 10.6143 7.677 10.6472C7.33814 10.6761 6.99785 10.6898 6.65732 10.6882C6.3168 10.6898 5.97651 10.6761 5.63765 10.6472ZM10.9168 8.35503C11.2816 8.19686 11.7339 8.44858 11.7339 8.84624V8.84624C11.7339 9.266 11.2294 9.70854 10.3811 10.0556C9.93579 10.2378 9.47764 9.88243 9.47764 9.4013V9.4013C9.47764 9.05762 9.71712 8.76335 10.0469 8.66675C10.3582 8.57557 10.649 8.47112 10.9168 8.35503ZM6.65732 4.37287C9.56225 4.37287 11.7339 5.34648 11.7339 6.21484C11.7339 7.0832 9.56225 8.05682 6.65732 8.05682C3.7524 8.05682 1.58076 7.0832 1.58076 6.21484C1.58076 5.34648 3.7524 4.37287 6.65732 4.37287ZM1.58076 8.84624V8.84624C1.58076 8.44858 2.03303 8.19686 2.39787 8.35503C2.66566 8.47112 2.95642 8.57557 3.2677 8.66675C3.59752 8.76335 3.83701 9.05762 3.83701 9.4013V9.4013C3.83701 9.88243 3.37886 10.2378 2.93356 10.0556C2.08527 9.70854 1.58076 9.266 1.58076 8.84624ZM6.09326 12.0039V12.0039C6.09326 11.8524 6.21798 11.7305 6.36948 11.7341L6.65732 11.7408C6.87284 11.7408 7.08269 11.7368 7.28685 11.7288C7.40208 11.7244 7.51715 11.7399 7.6275 11.7734C7.67815 11.7888 7.72923 11.8038 7.78075 11.8184C8.11155 11.9126 8.34951 12.2078 8.34951 12.5517V12.5517C8.34951 13.0365 7.88784 13.3947 7.43936 13.2106C6.59511 12.8639 6.09326 12.4226 6.09326 12.0039ZM10.154 13.8034C9.765 13.7707 9.47764 13.4371 9.47764 13.0467V13.0467C9.47764 12.5764 9.88934 12.2139 10.3588 12.2419C10.6287 12.258 10.8992 12.2664 11.1698 12.267C11.4419 12.2678 11.7138 12.2606 11.9852 12.2454C12.4527 12.2192 12.862 12.5804 12.862 13.0487V13.0487C12.862 13.438 12.5755 13.7706 12.1875 13.8032C11.5111 13.8601 10.8305 13.8601 10.154 13.8034ZM14.8936 13.2133C14.4483 13.3955 13.9901 13.0401 13.9901 12.559V12.559C13.9901 12.2153 14.2296 11.921 14.5594 11.8244C14.8707 11.7332 15.1615 11.6288 15.4293 11.5127C15.7941 11.3545 16.2464 11.6062 16.2464 12.0039V12.0039C16.2464 12.4237 15.7419 12.8662 14.8936 13.2133Z" fill="#754FB4"/>
</svg>
